<svg width="542" height="223" viewBox="0 0 542 223" fill="none" xmlns="http://www.w3.org/2000/svg">
<rect width="542" height="223" rx="28" fill="#E7E7E7"/>
<rect x="38" y="69" width="76" height="122" rx="11" fill="#989898"/>
<path d="M59.9844 137.244C55.5117 137.244 52.8848 134.598 52.8848 129.949C52.8848 125.301 55.5703 122.664 59.8281 122.664C62.5234 122.664 64.5156 123.689 65.6289 125.652C65.9121 126.141 66.0586 126.658 66.0586 127.156C66.0586 128.211 65.3457 128.895 64.2617 128.895C63.3633 128.895 62.8164 128.543 62.3672 127.674C61.7422 126.473 60.9609 125.916 59.877 125.916C58.1777 125.916 57.1035 127.42 57.1035 129.939C57.1035 132.488 58.168 133.992 59.8867 133.992C61.0195 133.992 61.8105 133.416 62.4062 132.166C62.8262 131.277 63.3242 130.936 64.1934 130.936C65.375 130.936 66.1465 131.658 66.1465 132.762C66.1465 133.113 66.0684 133.484 65.9219 133.846C65.1016 135.887 62.7285 137.244 59.9844 137.244ZM70.9219 137.156C68.959 137.156 67.2891 135.809 67.2891 133.865C67.2891 131.795 68.8809 130.672 71.7617 130.496L74.125 130.35V129.822C74.125 129.1 73.5781 128.709 72.8262 128.709C72.2012 128.709 71.8887 128.875 71.1953 129.51C70.7266 129.939 70.2188 130.154 69.623 130.154C68.6758 130.154 68.002 129.568 68.002 128.738C68.002 128.494 68.0215 128.338 68.0801 128.143C68.4902 126.766 70.3555 125.945 73.041 125.945C76.0293 125.945 78.0312 127.439 78.0312 129.627V135.232C78.0312 136.619 77.2012 137.244 76.0488 137.244C74.9941 137.244 74.252 136.727 74.125 135.555H74.0469C73.4805 136.609 72.1719 137.156 70.9219 137.156ZM72.416 134.48C73.3047 134.48 74.125 133.982 74.125 133.191V132.488L72.4258 132.605C71.6641 132.664 71.2344 133.025 71.2344 133.553C71.2344 134.139 71.7129 134.48 72.416 134.48ZM81.5469 137.244C80.3164 137.244 79.5449 136.541 79.5449 135.174V127.977C79.5449 126.678 80.3262 125.975 81.498 125.975C82.6211 125.975 83.3926 126.678 83.3926 127.986V128.377H83.4707C83.7246 126.824 84.4375 126.062 85.5117 126.062C85.9121 126.062 86.2441 126.16 86.4883 126.346C86.8887 126.639 87.0938 127.156 87.0938 127.898C87.0938 128.533 86.9082 129.012 86.5371 129.344C86.166 129.676 85.6094 129.852 84.877 129.881C83.8027 129.92 83.5488 130.271 83.5488 131.453V135.174C83.5488 136.541 82.7773 137.244 81.5469 137.244ZM91.6738 137.156C89.0176 137.156 87.4746 135.096 87.4746 131.58C87.4746 128.113 89.0566 126.062 91.7422 126.062C93.3145 126.062 94.4863 126.951 94.9062 128.162H94.9844V124.734C94.9844 123.318 95.8145 122.664 96.9863 122.664C98.1582 122.664 98.9883 123.318 98.9883 124.744V135.174C98.9883 136.59 98.1582 137.244 96.9863 137.244C95.8145 137.244 94.9844 136.59 94.9844 135.174V135.135H94.9062C94.5449 136.268 93.2949 137.156 91.6738 137.156ZM93.2852 134.07C94.3691 134.07 95.0039 133.172 95.0039 131.619C95.0039 130.076 94.3594 129.148 93.2852 129.148C92.2109 129.148 91.5762 130.086 91.5762 131.609C91.5762 133.152 92.2012 134.07 93.2852 134.07Z" fill="black"/>
<rect x="138" y="69" width="76" height="122" rx="11" fill="#989898"/>
<path d="M159.984 137.244C155.512 137.244 152.885 134.598 152.885 129.949C152.885 125.301 155.57 122.664 159.828 122.664C162.523 122.664 164.516 123.689 165.629 125.652C165.912 126.141 166.059 126.658 166.059 127.156C166.059 128.211 165.346 128.895 164.262 128.895C163.363 128.895 162.816 128.543 162.367 127.674C161.742 126.473 160.961 125.916 159.877 125.916C158.178 125.916 157.104 127.42 157.104 129.939C157.104 132.488 158.168 133.992 159.887 133.992C161.02 133.992 161.811 133.416 162.406 132.166C162.826 131.277 163.324 130.936 164.193 130.936C165.375 130.936 166.146 131.658 166.146 132.762C166.146 133.113 166.068 133.484 165.922 133.846C165.102 135.887 162.729 137.244 159.984 137.244ZM170.922 137.156C168.959 137.156 167.289 135.809 167.289 133.865C167.289 131.795 168.881 130.672 171.762 130.496L174.125 130.35V129.822C174.125 129.1 173.578 128.709 172.826 128.709C172.201 128.709 171.889 128.875 171.195 129.51C170.727 129.939 170.219 130.154 169.623 130.154C168.676 130.154 168.002 129.568 168.002 128.738C168.002 128.494 168.021 128.338 168.08 128.143C168.49 126.766 170.355 125.945 173.041 125.945C176.029 125.945 178.031 127.439 178.031 129.627V135.232C178.031 136.619 177.201 137.244 176.049 137.244C174.994 137.244 174.252 136.727 174.125 135.555H174.047C173.48 136.609 172.172 137.156 170.922 137.156ZM172.416 134.48C173.305 134.48 174.125 133.982 174.125 133.191V132.488L172.426 132.605C171.664 132.664 171.234 133.025 171.234 133.553C171.234 134.139 171.713 134.48 172.416 134.48ZM181.547 137.244C180.316 137.244 179.545 136.541 179.545 135.174V127.977C179.545 126.678 180.326 125.975 181.498 125.975C182.621 125.975 183.393 126.678 183.393 127.986V128.377H183.471C183.725 126.824 184.438 126.062 185.512 126.062C185.912 126.062 186.244 126.16 186.488 126.346C186.889 126.639 187.094 127.156 187.094 127.898C187.094 128.533 186.908 129.012 186.537 129.344C186.166 129.676 185.609 129.852 184.877 129.881C183.803 129.92 183.549 130.271 183.549 131.453V135.174C183.549 136.541 182.777 137.244 181.547 137.244ZM191.674 137.156C189.018 137.156 187.475 135.096 187.475 131.58C187.475 128.113 189.057 126.062 191.742 126.062C193.314 126.062 194.486 126.951 194.906 128.162H194.984V124.734C194.984 123.318 195.814 122.664 196.986 122.664C198.158 122.664 198.988 123.318 198.988 124.744V135.174C198.988 136.59 198.158 137.244 196.986 137.244C195.814 137.244 194.984 136.59 194.984 135.174V135.135H194.906C194.545 136.268 193.295 137.156 191.674 137.156ZM193.285 134.07C194.369 134.07 195.004 133.172 195.004 131.619C195.004 130.076 194.359 129.148 193.285 129.148C192.211 129.148 191.576 130.086 191.576 131.609C191.576 133.152 192.201 134.07 193.285 134.07Z" fill="black"/>
<rect x="238" y="69" width="76" height="122" rx="11" fill="#989898"/>
<path d="M259.984 137.244C255.512 137.244 252.885 134.598 252.885 129.949C252.885 125.301 255.57 122.664 259.828 122.664C262.523 122.664 264.516 123.689 265.629 125.652C265.912 126.141 266.059 126.658 266.059 127.156C266.059 128.211 265.346 128.895 264.262 128.895C263.363 128.895 262.816 128.543 262.367 127.674C261.742 126.473 260.961 125.916 259.877 125.916C258.178 125.916 257.104 127.42 257.104 129.939C257.104 132.488 258.168 133.992 259.887 133.992C261.02 133.992 261.811 133.416 262.406 132.166C262.826 131.277 263.324 130.936 264.193 130.936C265.375 130.936 266.146 131.658 266.146 132.762C266.146 133.113 266.068 133.484 265.922 133.846C265.102 135.887 262.729 137.244 259.984 137.244ZM270.922 137.156C268.959 137.156 267.289 135.809 267.289 133.865C267.289 131.795 268.881 130.672 271.762 130.496L274.125 130.35V129.822C274.125 129.1 273.578 128.709 272.826 128.709C272.201 128.709 271.889 128.875 271.195 129.51C270.727 129.939 270.219 130.154 269.623 130.154C268.676 130.154 268.002 129.568 268.002 128.738C268.002 128.494 268.021 128.338 268.08 128.143C268.49 126.766 270.355 125.945 273.041 125.945C276.029 125.945 278.031 127.439 278.031 129.627V135.232C278.031 136.619 277.201 137.244 276.049 137.244C274.994 137.244 274.252 136.727 274.125 135.555H274.047C273.48 136.609 272.172 137.156 270.922 137.156ZM272.416 134.48C273.305 134.48 274.125 133.982 274.125 133.191V132.488L272.426 132.605C271.664 132.664 271.234 133.025 271.234 133.553C271.234 134.139 271.713 134.48 272.416 134.48ZM281.547 137.244C280.316 137.244 279.545 136.541 279.545 135.174V127.977C279.545 126.678 280.326 125.975 281.498 125.975C282.621 125.975 283.393 126.678 283.393 127.986V128.377H283.471C283.725 126.824 284.438 126.062 285.512 126.062C285.912 126.062 286.244 126.16 286.488 126.346C286.889 126.639 287.094 127.156 287.094 127.898C287.094 128.533 286.908 129.012 286.537 129.344C286.166 129.676 285.609 129.852 284.877 129.881C283.803 129.92 283.549 130.271 283.549 131.453V135.174C283.549 136.541 282.777 137.244 281.547 137.244ZM291.674 137.156C289.018 137.156 287.475 135.096 287.475 131.58C287.475 128.113 289.057 126.062 291.742 126.062C293.314 126.062 294.486 126.951 294.906 128.162H294.984V124.734C294.984 123.318 295.814 122.664 296.986 122.664C298.158 122.664 298.988 123.318 298.988 124.744V135.174C298.988 136.59 298.158 137.244 296.986 137.244C295.814 137.244 294.984 136.59 294.984 135.174V135.135H294.906C294.545 136.268 293.295 137.156 291.674 137.156ZM293.285 134.07C294.369 134.07 295.004 133.172 295.004 131.619C295.004 130.076 294.359 129.148 293.285 129.148C292.211 129.148 291.576 130.086 291.576 131.609C291.576 133.152 292.201 134.07 293.285 134.07Z" fill="black"/>
<rect x="338" y="69" width="76" height="122" rx="11" fill="#989898"/>
<path d="M359.984 137.244C355.512 137.244 352.885 134.598 352.885 129.949C352.885 125.301 355.57 122.664 359.828 122.664C362.523 122.664 364.516 123.689 365.629 125.652C365.912 126.141 366.059 126.658 366.059 127.156C366.059 128.211 365.346 128.895 364.262 128.895C363.363 128.895 362.816 128.543 362.367 127.674C361.742 126.473 360.961 125.916 359.877 125.916C358.178 125.916 357.104 127.42 357.104 129.939C357.104 132.488 358.168 133.992 359.887 133.992C361.02 133.992 361.811 133.416 362.406 132.166C362.826 131.277 363.324 130.936 364.193 130.936C365.375 130.936 366.146 131.658 366.146 132.762C366.146 133.113 366.068 133.484 365.922 133.846C365.102 135.887 362.729 137.244 359.984 137.244ZM370.922 137.156C368.959 137.156 367.289 135.809 367.289 133.865C367.289 131.795 368.881 130.672 371.762 130.496L374.125 130.35V129.822C374.125 129.1 373.578 128.709 372.826 128.709C372.201 128.709 371.889 128.875 371.195 129.51C370.727 129.939 370.219 130.154 369.623 130.154C368.676 130.154 368.002 129.568 368.002 128.738C368.002 128.494 368.021 128.338 368.08 128.143C368.49 126.766 370.355 125.945 373.041 125.945C376.029 125.945 378.031 127.439 378.031 129.627V135.232C378.031 136.619 377.201 137.244 376.049 137.244C374.994 137.244 374.252 136.727 374.125 135.555H374.047C373.48 136.609 372.172 137.156 370.922 137.156ZM372.416 134.48C373.305 134.48 374.125 133.982 374.125 133.191V132.488L372.426 132.605C371.664 132.664 371.234 133.025 371.234 133.553C371.234 134.139 371.713 134.48 372.416 134.48ZM381.547 137.244C380.316 137.244 379.545 136.541 379.545 135.174V127.977C379.545 126.678 380.326 125.975 381.498 125.975C382.621 125.975 383.393 126.678 383.393 127.986V128.377H383.471C383.725 126.824 384.438 126.062 385.512 126.062C385.912 126.062 386.244 126.16 386.488 126.346C386.889 126.639 387.094 127.156 387.094 127.898C387.094 128.533 386.908 129.012 386.537 129.344C386.166 129.676 385.609 129.852 384.877 129.881C383.803 129.92 383.549 130.271 383.549 131.453V135.174C383.549 136.541 382.777 137.244 381.547 137.244ZM391.674 137.156C389.018 137.156 387.475 135.096 387.475 131.58C387.475 128.113 389.057 126.062 391.742 126.062C393.314 126.062 394.486 126.951 394.906 128.162H394.984V124.734C394.984 123.318 395.814 122.664 396.986 122.664C398.158 122.664 398.988 123.318 398.988 124.744V135.174C398.988 136.59 398.158 137.244 396.986 137.244C395.814 137.244 394.984 136.59 394.984 135.174V135.135H394.906C394.545 136.268 393.295 137.156 391.674 137.156ZM393.285 134.07C394.369 134.07 395.004 133.172 395.004 131.619C395.004 130.076 394.359 129.148 393.285 129.148C392.211 129.148 391.576 130.086 391.576 131.609C391.576 133.152 392.201 134.07 393.285 134.07Z" fill="black"/>
<rect x="443" y="69" width="76" height="122" rx="11" fill="#989898"/>
<path d="M464.984 137.244C460.512 137.244 457.885 134.598 457.885 129.949C457.885 125.301 460.57 122.664 464.828 122.664C467.523 122.664 469.516 123.689 470.629 125.652C470.912 126.141 471.059 126.658 471.059 127.156C471.059 128.211 470.346 128.895 469.262 128.895C468.363 128.895 467.816 128.543 467.367 127.674C466.742 126.473 465.961 125.916 464.877 125.916C463.178 125.916 462.104 127.42 462.104 129.939C462.104 132.488 463.168 133.992 464.887 133.992C466.02 133.992 466.811 133.416 467.406 132.166C467.826 131.277 468.324 130.936 469.193 130.936C470.375 130.936 471.146 131.658 471.146 132.762C471.146 133.113 471.068 133.484 470.922 133.846C470.102 135.887 467.729 137.244 464.984 137.244ZM475.922 137.156C473.959 137.156 472.289 135.809 472.289 133.865C472.289 131.795 473.881 130.672 476.762 130.496L479.125 130.35V129.822C479.125 129.1 478.578 128.709 477.826 128.709C477.201 128.709 476.889 128.875 476.195 129.51C475.727 129.939 475.219 130.154 474.623 130.154C473.676 130.154 473.002 129.568 473.002 128.738C473.002 128.494 473.021 128.338 473.08 128.143C473.49 126.766 475.355 125.945 478.041 125.945C481.029 125.945 483.031 127.439 483.031 129.627V135.232C483.031 136.619 482.201 137.244 481.049 137.244C479.994 137.244 479.252 136.727 479.125 135.555H479.047C478.48 136.609 477.172 137.156 475.922 137.156ZM477.416 134.48C478.305 134.48 479.125 133.982 479.125 133.191V132.488L477.426 132.605C476.664 132.664 476.234 133.025 476.234 133.553C476.234 134.139 476.713 134.48 477.416 134.48ZM486.547 137.244C485.316 137.244 484.545 136.541 484.545 135.174V127.977C484.545 126.678 485.326 125.975 486.498 125.975C487.621 125.975 488.393 126.678 488.393 127.986V128.377H488.471C488.725 126.824 489.438 126.062 490.512 126.062C490.912 126.062 491.244 126.16 491.488 126.346C491.889 126.639 492.094 127.156 492.094 127.898C492.094 128.533 491.908 129.012 491.537 129.344C491.166 129.676 490.609 129.852 489.877 129.881C488.803 129.92 488.549 130.271 488.549 131.453V135.174C488.549 136.541 487.777 137.244 486.547 137.244ZM496.674 137.156C494.018 137.156 492.475 135.096 492.475 131.58C492.475 128.113 494.057 126.062 496.742 126.062C498.314 126.062 499.486 126.951 499.906 128.162H499.984V124.734C499.984 123.318 500.814 122.664 501.986 122.664C503.158 122.664 503.988 123.318 503.988 124.744V135.174C503.988 136.59 503.158 137.244 501.986 137.244C500.814 137.244 499.984 136.59 499.984 135.174V135.135H499.906C499.545 136.268 498.295 137.156 496.674 137.156ZM498.285 134.07C499.369 134.07 500.004 133.172 500.004 131.619C500.004 130.076 499.359 129.148 498.285 129.148C497.211 129.148 496.576 130.086 496.576 131.609C496.576 133.152 497.201 134.07 498.285 134.07Z" fill="black"/>
<path d="M233.225 46.2441C231.906 46.2441 231.154 45.4629 231.154 44.0762V41.5371L227.111 35.082C226.828 34.623 226.682 34.1348 226.682 33.6562C226.682 32.5039 227.57 31.6641 228.791 31.6641C229.699 31.6641 230.188 32.0059 230.744 33.0312L233.234 37.6211H233.312L235.812 33.0215C236.34 32.0547 236.887 31.6641 237.717 31.6641C238.898 31.6641 239.768 32.4941 239.768 33.6172C239.768 34.1152 239.621 34.5938 239.328 35.0625L235.295 41.5371V44.0762C235.295 45.4629 234.543 46.2441 233.225 46.2441ZM244.104 46.2734C240.588 46.2734 238.439 44.2422 238.439 40.5996C238.439 37.0547 240.646 34.9453 244.104 34.9453C247.58 34.9453 249.777 37.0352 249.777 40.5996C249.777 44.252 247.629 46.2734 244.104 46.2734ZM244.104 43.4121C245.1 43.4121 245.715 42.416 245.715 40.6094C245.715 38.8516 245.09 37.8066 244.104 37.8066C243.127 37.8066 242.502 38.8516 242.502 40.6094C242.502 42.416 243.098 43.4121 244.104 43.4121ZM254.982 46.2148C252.668 46.2148 250.969 44.7012 250.969 42.1328V37.0449C250.969 35.6289 251.799 34.9746 252.971 34.9746C254.143 34.9746 254.973 35.6289 254.973 37.0547V41.2344C254.973 42.377 255.588 42.9824 256.525 42.9824C257.424 42.9824 258.01 42.2891 258.01 41.2441V37.0449C258.01 35.6289 258.84 34.9746 260.012 34.9746C261.184 34.9746 262.014 35.6289 262.014 37.0547V44.2031C262.014 45.6094 261.213 46.2441 260.061 46.2441C258.908 46.2441 258.107 45.6094 258.107 44.2129V43.8809H258.029C257.6 45.3457 256.594 46.2148 254.982 46.2148ZM265.52 46.2441C264.289 46.2441 263.518 45.541 263.518 44.1738V36.9766C263.518 35.6777 264.299 34.9746 265.471 34.9746C266.594 34.9746 267.365 35.6777 267.365 36.9863V37.377H267.443C267.697 35.8242 268.41 35.0625 269.484 35.0625C269.885 35.0625 270.217 35.1602 270.461 35.3457C270.861 35.6387 271.066 36.1562 271.066 36.8984C271.066 37.5332 270.881 38.0117 270.51 38.3438C270.139 38.6758 269.582 38.8516 268.85 38.8809C267.775 38.9199 267.521 39.2715 267.521 40.4531V44.1738C267.521 45.541 266.75 46.2441 265.52 46.2441ZM278.02 46C276.701 46 275.949 45.2188 275.949 43.832V34.0762C275.949 32.6895 276.701 31.9082 278.02 31.9082H281.975C286.252 31.9082 288.762 34.3398 288.762 38.8516C288.762 43.3633 286.242 46 281.975 46H278.02ZM280.09 42.709H281.389C283.459 42.709 284.543 41.4492 284.543 38.8516C284.543 36.4785 283.371 35.1992 281.389 35.1992H280.09V42.709ZM295.52 46.2734C291.984 46.2734 289.885 44.1738 289.885 40.668C289.885 37.1426 292.004 34.9453 295.393 34.9453C298.732 34.9453 300.891 37.0742 300.891 39.9746C300.891 40.9316 300.344 41.459 299.348 41.459H293.742V41.7129C293.742 42.7676 294.504 43.5293 295.578 43.5293C296.447 43.5293 297.072 43.2656 297.834 42.5918C298.254 42.2207 298.566 42.0938 299.055 42.0938C299.826 42.0938 300.52 42.5918 300.52 43.4512C300.52 43.7539 300.432 44.0469 300.256 44.3301C299.533 45.5312 297.717 46.2734 295.52 46.2734ZM293.801 39.291H297.16C297.092 38.3242 296.418 37.6992 295.48 37.6992C294.572 37.6992 293.879 38.3633 293.801 39.291ZM307.463 46.2734C303.967 46.2734 301.838 44.1543 301.838 40.5996C301.838 37.084 303.977 34.9453 307.443 34.9453C309.729 34.9453 311.555 35.8926 312.297 37.4648C312.463 37.8164 312.561 38.1973 312.561 38.5098C312.561 39.457 311.74 39.9941 310.842 39.9941C310.08 39.9941 309.602 39.6914 309.24 39.0957C308.752 38.2754 308.254 37.9238 307.6 37.9238C306.477 37.9238 305.891 38.832 305.891 40.5996C305.891 42.377 306.457 43.2949 307.57 43.2949C308.342 43.2949 308.82 42.8555 309.182 42.3379C309.689 41.6152 310.139 41.2637 310.979 41.2637C311.857 41.2637 312.639 41.8301 312.639 42.8066C312.639 43.1191 312.561 43.4512 312.346 43.8613C311.584 45.2969 309.621 46.2734 307.463 46.2734ZM315.939 46.2441C314.768 46.2441 313.938 45.5898 313.938 44.1738V33.7344C313.938 32.3184 314.768 31.6641 315.939 31.6641C317.111 31.6641 317.941 32.3184 317.941 33.7441V39.0176H318.02L321.047 35.8242C321.613 35.2285 322.082 34.9746 322.707 34.9746C323.762 34.9746 324.523 35.7168 324.523 36.7422C324.523 37.377 324.328 37.7578 323.723 38.3242L321.848 40.0723L323.859 42.8652C324.318 43.5098 324.455 43.8613 324.455 44.3789C324.455 45.502 323.674 46.2441 322.512 46.2441C321.564 46.2441 321.057 45.8926 320.363 44.7793L318.801 42.25L317.941 43.0312V44.1738C317.941 45.5898 317.111 46.2441 315.939 46.2441Z" fill="black"/>
</svg>
