<svg width="472" height="676" viewBox="0 0 472 676" fill="none" xmlns="http://www.w3.org/2000/svg">
<circle cx="237.211" cy="118.183" r="95.5945" transform="rotate(74.05 237.211 118.183)" fill="#838383"/>
<circle cx="126.756" cy="149.752" r="95.5945" transform="rotate(74.05 126.756 149.752)" fill="#838383"/>
<circle cx="345.221" cy="525.966" r="95.5945" transform="rotate(74.05 345.221 525.966)" fill="#838383"/>
<circle cx="234.766" cy="557.534" r="95.5945" transform="rotate(74.05 234.766 557.534)" fill="#838383"/>
<rect x="284.266" y="93.2141" width="466.895" height="225.652" transform="rotate(74.05 284.266 93.2141)" fill="#838383"/>
<path d="M84.8364 168.022C81.2247 169.634 78.1383 168.541 76.61 165.116C76.1683 164.126 75.8178 162.55 75.7172 160.959L73.7087 133.238C73.278 127.816 75.1439 124.449 79.6653 122.431C84.5077 120.27 88.1974 121.062 92.0616 125.048L111.433 145.02C112.625 146.252 113.317 147.227 113.866 148.458C115.299 151.668 113.944 155.032 110.654 156.5C107.309 157.993 104.89 157.244 102.255 153.928L100.416 151.605L87.8422 157.216L88.2598 159.949C88.9209 164.306 87.9131 166.649 84.8364 168.022ZM86.2096 147.807L94.2624 144.213L83.9931 131.985L83.7791 132.081L86.2096 147.807Z" fill="#595959"/>
<g filter="url(#filter0_f_16_25)">
<rect x="174.185" y="300.109" width="95.7209" height="128.537" transform="rotate(-14.05 174.185 300.109)" stroke="black"/>
<path d="M176.124 430.86C175.082 426.696 177.613 422.475 181.777 421.433L204.396 415.773L206.283 423.312L176.124 430.86Z" fill="black"/>
<rect x="152.918" y="363.031" width="27.6345" height="75.995" rx="13.8173" transform="rotate(-29.05 152.918 363.031)" fill="black"/>
<path d="M327.756 392.913C326.714 388.749 322.493 386.218 318.329 387.26L295.71 392.921L297.597 400.461L327.756 392.913Z" fill="black"/>
<rect width="27.6345" height="75.995" rx="13.8173" transform="matrix(-0.999863 -0.0165799 -0.0165799 0.999863 316.015 322.215)" fill="black"/>
<rect x="152.635" y="304.987" width="138.173" height="127.81" rx="63.9049" transform="rotate(-14.05 152.635 304.987)" fill="#B8B6B7"/>
<path d="M218.846 409.486L208.793 412.002C206.017 412.696 203.218 418.18 204.607 423.732L228.064 417.862C226.675 412.309 221.622 408.791 218.846 409.486Z" fill="black"/>
<path d="M211.309 422.055C210.68 419.541 209.632 415.353 211.098 414.096" stroke="black"/>
<path d="M220.524 419.748C219.895 417.235 218.847 413.046 216.962 412.628" stroke="black"/>
<path d="M290.055 391.666L280.002 394.181C277.226 394.876 274.426 400.359 275.816 405.912L299.272 400.041C297.883 394.489 292.831 390.971 290.055 391.666Z" fill="black"/>
<path d="M283.355 404.025C282.726 401.511 281.678 397.323 283.144 396.066" stroke="black"/>
<path d="M292.57 401.719C291.941 399.205 290.893 395.017 289.008 394.598" stroke="black"/>
<rect x="178.361" y="245.651" width="61.1777" height="102.63" transform="rotate(-14.05 178.361 245.651)" stroke="black"/>
<path d="M149.523 282.6C146.838 266.176 157.19 250.434 173.335 246.394L251.05 226.945C267.195 222.905 283.742 231.915 289.109 247.668L297.418 272.056C308.738 305.282 289.242 341.088 255.19 349.61L227.461 356.549C193.408 365.071 159.345 342.669 153.681 308.026L149.523 282.6Z" fill="#B8B6B7"/>
<ellipse cx="210.476" cy="294.221" rx="2.59074" ry="2.37484" transform="rotate(-14.05 210.476 294.221)" fill="black"/>
<ellipse cx="232.257" cy="288.77" rx="2.59074" ry="2.37484" transform="rotate(-14.05 232.257 288.77)" fill="black"/>
<path d="M188.204 344.217C186.873 315.635 210.281 299.495 222.151 294.997L239.414 363.981C232.37 365.744 225.564 365.411 223.041 365.024C221.434 368.989 211.048 380.243 207.329 381.173C203.306 382.18 189.867 379.944 188.204 344.217Z" fill="white"/>
<path d="M275.328 322.414C263.034 296.576 234.754 293.37 222.151 294.997L239.414 363.981C246.467 362.216 252.321 358.715 254.366 357.185C257.654 359.925 270.183 365.444 275.854 364.025C279.396 363.138 290.696 354.711 275.328 322.414Z" fill="white"/>
<path d="M222.151 294.997C210.281 299.495 186.873 315.636 188.204 344.217" stroke="black"/>
<path d="M217.559 363.151C219.864 364.807 227.552 366.835 238.417 364.116" stroke="black"/>
<path d="M256.362 353.44C255.11 355.987 249.282 361.397 238.417 364.116" stroke="black"/>
<path d="M224.336 303.728L225.914 310.033" stroke="black"/>
<path d="M237.799 316.336C236.526 311.247 231.367 308.153 226.277 309.427C221.188 310.701 218.094 315.859 219.368 320.949" stroke="black"/>
<path d="M219.003 317.432C217.451 317.821 216.415 313.957 216.092 311.976C216.577 313.916 219.205 314.118 220.215 314.036C219.932 314.966 218.906 317.044 219.003 317.432Z" stroke="black" stroke-linejoin="round"/>
<path d="M236.465 313.062C238.017 312.674 237.11 308.777 236.463 306.878C236.949 308.818 234.726 310.233 233.796 310.638C234.484 311.325 236.368 312.674 236.465 313.062Z" stroke="black" stroke-linejoin="round"/>
<path d="M222.151 294.997C234.74 293.374 262.991 296.587 275.28 322.426" stroke="black"/>
<circle cx="214.997" cy="297.303" r="2.5" transform="rotate(-14.05 214.997 297.303)" fill="black"/>
<circle cx="229.548" cy="293.661" r="2.5" transform="rotate(-14.05 229.548 293.661)" fill="black"/>
<path d="M229.056 291.207L214.274 294.906L213.397 299.249L220.859 303.567C221.248 303.813 222.488 304.19 224.336 303.728C226.184 303.265 227.1 302.349 227.327 301.948C227.554 301.548 231.875 294.625 231.875 294.625L229.056 291.207Z" fill="black"/>
<path d="M156.412 246.506L174.821 241.899C181.694 240.179 187.246 247.584 183.667 253.7L169.966 277.115C166.345 283.303 157.041 281.972 155.3 275.017L150.593 256.208C149.521 251.922 152.126 247.578 156.412 246.506Z" fill="#45484B"/>
<path d="M265.061 219.316L246.653 223.922C239.779 225.643 238.37 234.79 244.407 238.499L267.523 252.701C273.631 256.454 281.212 250.897 279.471 243.943L274.764 225.134C273.692 220.848 269.348 218.243 265.061 219.316Z" fill="#45484B"/>
</g>
<defs>
<filter id="filter0_f_16_25" x="147.1" y="187.972" width="182.655" height="244.888" filterUnits="userSpaceOnUse" color-interpolation-filters="sRGB">
<feFlood flood-opacity="0" result="BackgroundImageFix"/>
<feBlend mode="normal" in="SourceGraphic" in2="BackgroundImageFix" result="shape"/>
<feGaussianBlur stdDeviation="1" result="effect1_foregroundBlur_16_25"/>
</filter>
</defs>
</svg>
