<svg width="532" height="174" viewBox="0 0 532 174" fill="none" xmlns="http://www.w3.org/2000/svg">
<path d="M165.893 48.4023C165.893 54.8281 165.893 61.1774 165.893 67.4502C165.893 73.723 165.74 80.0723 165.434 86.498C165.128 100.574 164.516 114.573 163.598 128.495C162.68 142.265 161.685 156.111 160.614 170.033C146.692 170.951 132.922 171.716 119.306 172.328C105.689 172.94 91.9196 173.246 77.9971 173.246C76.1611 173.246 73.2542 173.246 69.2764 173.246C65.2985 173.093 61.0146 172.94 56.4248 172.787C51.988 172.634 47.7806 172.405 43.8027 172.099C39.8249 171.64 36.918 171.028 35.082 170.263C23.3014 165.979 14.5042 160.242 8.69043 153.051C3.02962 145.707 0.199219 135.609 0.199219 122.758V119.086C0.505208 113.425 0.964193 108.376 1.57617 103.939C2.18815 99.5026 3.25911 95.4482 4.78906 91.7764C6.47201 88.1045 8.69043 84.7386 11.4443 81.6787C14.3512 78.4658 18.2526 75.2529 23.1484 72.04C26.5143 69.7451 30.4922 67.8327 35.082 66.3027C39.6719 64.7728 44.4147 63.4723 49.3105 62.4014C54.3594 61.3304 59.2552 60.5654 63.998 60.1064C68.8939 59.6475 73.3307 59.418 77.3086 59.418C84.6523 59.418 91.9196 59.9535 99.1104 61.0244C106.454 62.0954 113.721 63.7018 120.912 65.8438C120.147 55.7461 119.459 45.8014 118.847 36.0098C118.388 26.0651 117.623 16.1204 116.552 6.17578C124.813 5.41081 132.999 4.56934 141.107 3.65137C149.216 2.7334 157.325 1.81543 165.434 0.897461C165.587 8.85319 165.663 16.8089 165.663 24.7646C165.816 32.5674 165.893 40.4466 165.893 48.4023ZM130.78 117.709C130.78 114.19 130.78 110.671 130.78 107.152C130.78 103.633 130.704 100.115 130.551 96.5957C120.912 96.1367 111.273 95.9072 101.635 95.9072C100.258 95.9072 97.3509 95.9837 92.9141 96.1367C88.4772 96.1367 83.7344 96.2897 78.6855 96.5957C73.7897 96.7487 69.1999 97.1312 64.916 97.7432C60.6322 98.2021 57.8783 98.8141 56.6543 99.5791C54.3594 101.262 52.9059 103.633 52.2939 106.693C51.835 109.753 51.6055 112.584 51.6055 115.185C51.6055 116.409 51.682 118.091 51.835 120.233C51.988 122.222 52.2174 124.364 52.5234 126.659C52.9824 128.801 53.5179 130.867 54.1299 132.855C54.7419 134.691 55.4303 136.068 56.1953 136.986C56.6543 137.445 57.4193 137.828 58.4902 138.134C59.7142 138.44 61.0146 138.669 62.3916 138.822C63.7686 138.975 65.069 139.052 66.293 139.052C67.6699 139.052 68.7409 139.052 69.5059 139.052C78.2266 139.052 86.8708 138.669 95.4385 137.904C104.006 137.139 112.65 136.145 121.371 134.921C122.595 134.615 124.049 134.462 125.731 134.462C127.414 134.309 128.944 134.003 130.321 133.544V133.085C130.321 132.932 130.398 132.779 130.551 132.626C130.857 130.178 130.933 127.73 130.78 125.282C130.78 122.834 130.78 120.31 130.78 117.709ZM265.859 48.4023C265.859 54.8281 265.859 61.1774 265.859 67.4502C265.859 73.723 265.706 80.0723 265.4 86.498C265.094 100.574 264.482 114.573 263.564 128.495C262.646 142.265 261.652 156.111 260.581 170.033C246.659 170.951 232.889 171.716 219.272 172.328C205.656 172.94 191.886 173.246 177.964 173.246C176.128 173.246 173.221 173.246 169.243 173.246C165.265 173.093 160.981 172.94 156.392 172.787C151.955 172.634 147.747 172.405 143.77 172.099C139.792 171.64 136.885 171.028 135.049 170.263C123.268 165.979 114.471 160.242 108.657 153.051C102.996 145.707 100.166 135.609 100.166 122.758V119.086C100.472 113.425 100.931 108.376 101.543 103.939C102.155 99.5026 103.226 95.4482 104.756 91.7764C106.439 88.1045 108.657 84.7386 111.411 81.6787C114.318 78.4658 118.219 75.2529 123.115 72.04C126.481 69.7451 130.459 67.8327 135.049 66.3027C139.639 64.7728 144.382 63.4723 149.277 62.4014C154.326 61.3304 159.222 60.5654 163.965 60.1064C168.861 59.6475 173.298 59.418 177.275 59.418C184.619 59.418 191.886 59.9535 199.077 61.0244C206.421 62.0954 213.688 63.7018 220.879 65.8438C220.114 55.7461 219.425 45.8014 218.813 36.0098C218.354 26.0651 217.59 16.1204 216.519 6.17578C224.78 5.41081 232.965 4.56934 241.074 3.65137C249.183 2.7334 257.292 1.81543 265.4 0.897461C265.553 8.85319 265.63 16.8089 265.63 24.7646C265.783 32.5674 265.859 40.4466 265.859 48.4023ZM230.747 117.709C230.747 114.19 230.747 110.671 230.747 107.152C230.747 103.633 230.671 100.115 230.518 96.5957C220.879 96.1367 211.24 95.9072 201.602 95.9072C200.225 95.9072 197.318 95.9837 192.881 96.1367C188.444 96.1367 183.701 96.2897 178.652 96.5957C173.757 96.7487 169.167 97.1312 164.883 97.7432C160.599 98.2021 157.845 98.8141 156.621 99.5791C154.326 101.262 152.873 103.633 152.261 106.693C151.802 109.753 151.572 112.584 151.572 115.185C151.572 116.409 151.649 118.091 151.802 120.233C151.955 122.222 152.184 124.364 152.49 126.659C152.949 128.801 153.485 130.867 154.097 132.855C154.709 134.691 155.397 136.068 156.162 136.986C156.621 137.445 157.386 137.828 158.457 138.134C159.681 138.44 160.981 138.669 162.358 138.822C163.735 138.975 165.036 139.052 166.26 139.052C167.637 139.052 168.708 139.052 169.473 139.052C178.193 139.052 186.838 138.669 195.405 137.904C203.973 137.139 212.617 136.145 221.338 134.921C222.562 134.615 224.015 134.462 225.698 134.462C227.381 134.309 228.911 134.003 230.288 133.544V133.085C230.288 132.932 230.365 132.779 230.518 132.626C230.824 130.178 230.9 127.73 230.747 125.282C230.747 122.834 230.747 120.31 230.747 117.709ZM531.015 117.938C531.015 124.364 530.862 130.714 530.556 136.986C530.403 143.106 530.02 149.302 529.408 155.575C522.982 155.881 516.786 156.264 510.819 156.723C505.006 157.029 498.886 157.794 492.46 159.018C494.296 148.002 495.214 136.91 495.214 125.741C495.214 123.752 495.061 120.386 494.755 115.644C494.449 110.748 493.99 105.699 493.378 100.497C492.919 95.1423 492.23 90.2464 491.312 85.8096C490.548 81.3727 489.63 78.4658 488.559 77.0889C487.794 76.1709 486.646 75.4824 485.116 75.0234C483.586 74.5645 481.98 74.2585 480.297 74.1055C478.614 73.7995 476.931 73.6465 475.248 73.6465C473.565 73.4935 472.188 73.417 471.117 73.417C469.281 73.417 467.063 73.4935 464.462 73.6465C462.014 73.7995 459.49 74.1055 456.889 74.5645C454.288 74.8704 451.763 75.4059 449.315 76.1709C447.021 76.9359 445.108 77.8538 443.578 78.9248C442.813 79.5368 442.125 81.1432 441.513 83.7441C441.054 86.3451 440.671 89.4814 440.365 93.1533C440.059 96.8252 439.753 100.803 439.447 105.087C439.294 109.371 439.141 113.425 438.988 117.25C438.835 120.922 438.759 124.211 438.759 127.118C438.759 129.872 438.759 131.632 438.759 132.396C438.759 142.494 438.988 152.592 439.447 162.689C435.01 162.842 430.65 162.995 426.366 163.148C422.235 163.301 417.951 163.378 413.515 163.378C413.056 163.378 412.444 163.378 411.679 163.378C410.914 163.378 410.149 163.301 409.384 163.148C408.466 163.148 407.548 163.072 406.63 162.919V146.166C406.63 141.423 406.553 136.527 406.4 131.479C406.247 126.43 406.094 121.993 405.941 118.168C405.788 115.567 405.559 112.201 405.253 108.07C404.947 103.939 404.258 99.9616 403.188 96.1367C402.117 92.1589 400.51 88.793 398.368 86.0391C396.379 83.1322 393.549 81.6787 389.877 81.6787C388.194 81.6787 385.899 81.9847 382.992 82.5967C380.238 83.0557 377.331 83.7441 374.271 84.6621C371.365 85.4271 368.611 86.4215 366.01 87.6455C363.562 88.7165 361.802 89.8639 360.731 91.0879C360.425 91.3939 360.043 93.1533 359.584 96.3662C359.278 99.4261 358.972 103.251 358.666 107.841C358.36 112.278 357.978 117.174 357.519 122.528C357.213 127.73 356.907 132.626 356.601 137.216C356.448 141.806 356.218 145.784 355.912 149.149C355.759 152.362 355.683 154.275 355.683 154.887C352.623 155.193 349.486 155.499 346.273 155.805C343.214 155.958 340.154 156.034 337.094 156.034C334.187 156.034 331.28 155.958 328.373 155.805C325.466 155.652 322.636 155.422 319.882 155.116C319.117 135.686 317.969 116.485 316.439 97.5137C315.062 78.5423 313.533 59.3415 311.85 39.9111C316.133 39.4521 320.341 39.0697 324.472 38.7637C328.756 38.3047 333.039 38.0752 337.323 38.0752C341.454 38.0752 345.585 38.1517 349.716 38.3047C353.847 38.4577 358.054 38.6107 362.338 38.7637L359.354 58.5C366.392 52.8392 373.124 48.6318 379.55 45.8779C386.129 43.124 393.931 41.7471 402.958 41.7471C406.477 41.7471 409.537 42.2061 412.138 43.124C414.892 43.889 417.34 45.0365 419.481 46.5664C421.776 47.9434 423.995 49.6263 426.137 51.6152C428.279 53.6042 430.574 55.7461 433.021 58.041C435.775 53.7572 438.912 50.3913 442.431 47.9434C446.103 45.3424 450.004 43.3535 454.135 41.9766C458.266 40.5996 462.626 39.7581 467.216 39.4521C471.806 38.9932 476.396 38.7637 480.985 38.7637C484.657 38.7637 488.482 38.9167 492.46 39.2227C496.591 39.3757 500.492 39.9876 504.164 41.0586C507.989 42.1296 511.431 43.736 514.491 45.8779C517.551 48.0199 519.923 50.9268 521.605 54.5986C523.594 59.0355 525.201 63.9313 526.425 69.2861C527.649 74.641 528.567 80.1488 529.179 85.8096C529.944 91.4704 530.403 97.0547 530.556 102.562C530.862 108.07 531.015 113.196 531.015 117.938Z" fill="#E7BCC8"/>
</svg>
