<svg width="164" height="84" viewBox="0 0 164 84" fill="none" xmlns="http://www.w3.org/2000/svg">
<g clip-path="url(#clip0_292_69)">
<path d="M25.577 51.1018C39.7028 51.1018 51.154 39.6623 51.154 25.5509C51.154 11.4395 39.7028 0 25.577 0C11.4512 0 0 11.4395 0 25.5509C0 39.6623 11.4512 51.1018 25.577 51.1018Z" fill="#5D3819"/>
<path d="M25.577 81.8068C39.7028 81.8068 51.154 70.3673 51.154 56.2559C51.154 42.1445 39.7028 30.705 25.577 30.705C11.4512 30.705 0 42.1445 0 56.2559C0 70.3673 11.4512 81.8068 25.577 81.8068Z" fill="#5D3819"/>
<path d="M138.423 53.295C152.549 53.295 164 41.8554 164 27.7441C164 13.6327 152.549 2.19318 138.423 2.19318C124.297 2.19318 112.846 13.6327 112.846 27.7441C112.846 41.8554 124.297 53.295 138.423 53.295Z" fill="#5D3819"/>
<path d="M138.423 84C152.549 84 164 72.5605 164 58.4491C164 44.3377 152.549 32.8982 138.423 32.8982C124.297 32.8982 112.846 44.3377 112.846 58.4491C112.846 72.5605 124.297 84 138.423 84Z" fill="#5D3819"/>
<path d="M147.534 11.624H22.6133V71.9373H147.534V11.624Z" fill="#5D3819"/>
<path d="M37.0859 55.0234C33.987 55.2578 30.901 55.4792 27.8281 55.6875C24.7812 55.8958 21.7083 56.0911 18.6094 56.2734C18.4792 51.2995 18.375 46.3646 18.2969 41.4688C18.2187 36.5469 18.0755 31.5859 17.8672 26.5859C19.612 26.5599 21.3307 26.5078 23.0234 26.4297C24.7161 26.3516 26.4219 26.2474 28.1406 26.1172C27.8542 28.0443 27.5807 29.9844 27.3203 31.9375C27.0859 33.8646 26.9036 35.8047 26.7734 37.7578C26.6693 39.3984 26.5781 41.0391 26.5 42.6797C26.4479 44.2943 26.3958 45.9219 26.3438 47.5625C28.0625 47.6146 29.7552 47.6406 31.4219 47.6406C33.1146 47.6406 34.8073 47.6667 36.5 47.7188L37.0859 55.0234ZM68.1016 40.5312C68.1016 40.7396 68.1016 40.9479 68.1016 41.1562C68.1016 41.3385 68.0885 41.5339 68.0625 41.7422C68.0365 42.1068 67.9714 42.7057 67.8672 43.5391C67.763 44.3724 67.6198 45.2448 67.4375 46.1562C67.2552 47.0417 67.0339 47.862 66.7734 48.6172C66.513 49.3724 66.2266 49.8542 65.9141 50.0625C65.7578 50.1667 65.224 50.2578 64.3125 50.3359C63.4271 50.4141 62.3333 50.4922 61.0312 50.5703C59.7552 50.6484 58.362 50.7135 56.8516 50.7656C55.3411 50.8177 53.8958 50.8698 52.5156 50.9219C51.1615 50.9479 49.9635 50.974 48.9219 51C47.9062 51.026 47.2292 51.0391 46.8906 51.0391C46.7344 51.0391 46.4609 51.0391 46.0703 51.0391C45.7057 51.0391 45.3151 51.0391 44.8984 51.0391C44.4818 51.013 44.0911 50.987 43.7266 50.9609C43.362 50.9349 43.1016 50.8958 42.9453 50.8438C42.5807 50.7135 42.2161 50.5052 41.8516 50.2188C41.487 49.9062 41.1484 49.5677 40.8359 49.2031C40.5234 48.8125 40.237 48.4219 39.9766 48.0312C39.7422 47.6146 39.5729 47.224 39.4688 46.8594C39.3906 46.5729 39.3255 46.1432 39.2734 45.5703C39.2214 44.9714 39.1823 44.3594 39.1562 43.7344C39.1302 43.0833 39.1042 42.4583 39.0781 41.8594C39.0781 41.2604 39.0781 40.8047 39.0781 40.4922C39.0781 39.9974 39.0911 39.3203 39.1172 38.4609C39.1432 37.5755 39.2214 36.6771 39.3516 35.7656C39.4818 34.8542 39.6641 34.0078 39.8984 33.2266C40.1589 32.4193 40.5234 31.8594 40.9922 31.5469C41.2005 31.4167 41.5911 31.2995 42.1641 31.1953C42.737 31.0911 43.4141 31 44.1953 30.9219C44.9766 30.8438 45.8099 30.7917 46.6953 30.7656C47.5807 30.7135 48.4401 30.6875 49.2734 30.6875C50.1328 30.6615 50.9271 30.6484 51.6562 30.6484C52.3854 30.6484 52.9714 30.6615 53.4141 30.6875C53.8047 30.7135 54.3646 30.7396 55.0938 30.7656C55.8229 30.7656 56.6302 30.7786 57.5156 30.8047C58.4271 30.8307 59.3646 30.8828 60.3281 30.9609C61.2917 31.013 62.1901 31.0911 63.0234 31.1953C63.8568 31.2995 64.5859 31.4427 65.2109 31.625C65.862 31.7812 66.2917 31.9766 66.5 32.2109C66.8385 32.5755 67.112 33.1224 67.3203 33.8516C67.5286 34.5807 67.6849 35.362 67.7891 36.1953C67.9193 37.0026 67.9974 37.8099 68.0234 38.6172C68.0755 39.3984 68.1016 40.0365 68.1016 40.5312ZM59.8203 41.3516C59.8203 41.0391 59.8073 40.6745 59.7812 40.2578C59.7552 39.8411 59.7161 39.4245 59.6641 39.0078C59.612 38.5651 59.5339 38.1484 59.4297 37.7578C59.3255 37.3411 59.1953 37.0026 59.0391 36.7422C58.8307 36.4036 58.4271 36.1432 57.8281 35.9609C57.2292 35.7786 56.5651 35.6484 55.8359 35.5703C55.1328 35.4661 54.4297 35.401 53.7266 35.375C53.0495 35.349 52.5417 35.3359 52.2031 35.3359C52.0208 35.3359 51.6953 35.349 51.2266 35.375C50.7578 35.375 50.263 35.388 49.7422 35.4141C49.2474 35.4401 48.7786 35.4922 48.3359 35.5703C47.8932 35.6224 47.6068 35.6875 47.4766 35.7656C47.2422 35.9219 47.0599 36.1693 46.9297 36.5078C46.7995 36.8203 46.6953 37.1719 46.6172 37.5625C46.5651 37.9531 46.526 38.3438 46.5 38.7344C46.5 39.099 46.5 39.3984 46.5 39.6328C46.5 39.8672 46.513 40.2969 46.5391 40.9219C46.5911 41.5208 46.6432 42.1719 46.6953 42.875C46.7734 43.5521 46.8646 44.1771 46.9688 44.75C47.0729 45.3229 47.2031 45.6875 47.3594 45.8438C47.5417 46.0521 47.8802 46.2214 48.375 46.3516C48.8958 46.4818 49.4427 46.599 50.0156 46.7031C50.6146 46.7812 51.1875 46.8464 51.7344 46.8984C52.2812 46.9245 52.6719 46.9375 52.9062 46.9375C53.3229 46.9375 53.8177 46.9245 54.3906 46.8984C54.9635 46.8724 55.5365 46.8073 56.1094 46.7031C56.7083 46.599 57.2682 46.4557 57.7891 46.2734C58.3099 46.0911 58.7266 45.8438 59.0391 45.5312C59.2214 45.349 59.3646 45.0755 59.4688 44.7109C59.5729 44.3464 59.651 43.9557 59.7031 43.5391C59.7552 43.1224 59.7812 42.7188 59.7812 42.3281C59.8073 41.9115 59.8203 41.5859 59.8203 41.3516ZM97.7891 42.1719C97.7891 43.2656 97.776 44.3594 97.75 45.4531C97.75 46.5208 97.75 47.6016 97.75 48.6953C97.724 49.2682 97.7109 49.8542 97.7109 50.4531C97.737 51.0521 97.724 51.651 97.6719 52.25C97.5938 52.8229 97.5156 53.4349 97.4375 54.0859C97.3594 54.7109 97.2292 55.3359 97.0469 55.9609C96.8646 56.5859 96.6172 57.1719 96.3047 57.7188C96.0182 58.2656 95.6276 58.7344 95.1328 59.125C95.0026 59.2292 94.7422 59.3203 94.3516 59.3984C93.9609 59.4766 93.5052 59.5547 92.9844 59.6328C92.4635 59.7109 91.9036 59.776 91.3047 59.8281C90.7057 59.8802 90.1328 59.9193 89.5859 59.9453C89.0391 59.9974 88.5443 60.0365 88.1016 60.0625C87.6589 60.1146 87.3464 60.1406 87.1641 60.1406C85.5234 60.1927 83.8958 60.2318 82.2812 60.2578C80.6927 60.2839 79.0781 60.2969 77.4375 60.2969H74.9375C74.8854 59.8542 74.8333 59.3984 74.7812 58.9297C74.7292 58.4609 74.7031 57.9922 74.7031 57.5234C74.7031 57.0026 74.651 56.4688 74.5469 55.9219C74.4427 55.349 74.3255 54.7891 74.1953 54.2422L76.7734 54.2812C76.9297 54.2812 77.3594 54.2812 78.0625 54.2812C78.7917 54.2552 79.638 54.2422 80.6016 54.2422C81.5651 54.2161 82.5938 54.1901 83.6875 54.1641C84.8073 54.112 85.8359 54.0469 86.7734 53.9688C87.7109 53.8906 88.5052 53.7995 89.1562 53.6953C89.8333 53.5911 90.2109 53.474 90.2891 53.3438C90.4974 53.0052 90.6276 52.6276 90.6797 52.2109C90.7318 51.7682 90.7578 51.3516 90.7578 50.9609C90.7578 50.7526 90.7448 50.5443 90.7188 50.3359C90.7188 50.1016 90.7057 49.8802 90.6797 49.6719C89.2214 49.776 87.776 49.8672 86.3438 49.9453C84.9115 50.0234 83.4531 50.0625 81.9688 50.0625C81.6302 50.0625 81.2005 50.0625 80.6797 50.0625C80.1849 50.0625 79.6641 50.0495 79.1172 50.0234C78.5964 49.9974 78.0755 49.9583 77.5547 49.9062C77.0599 49.8542 76.6562 49.776 76.3438 49.6719C75.8229 49.5156 75.2891 49.3464 74.7422 49.1641C74.2214 48.9557 73.7266 48.7083 73.2578 48.4219C72.7891 48.1354 72.3724 47.7969 72.0078 47.4062C71.6693 46.9896 71.4349 46.4948 71.3047 45.9219C71.2266 45.6354 71.1745 45.3229 71.1484 44.9844C71.1484 44.6458 71.1484 44.3333 71.1484 44.0469C71.1484 43.3177 71.1875 42.3932 71.2656 41.2734C71.3438 40.1536 71.474 39.0208 71.6562 37.875C71.8646 36.7031 72.125 35.6094 72.4375 34.5938C72.776 33.5521 73.1927 32.7708 73.6875 32.25C73.974 31.9375 74.4297 31.6641 75.0547 31.4297C75.7057 31.1953 76.4349 31 77.2422 30.8438C78.0495 30.6875 78.8958 30.5573 79.7812 30.4531C80.6927 30.3229 81.5781 30.2318 82.4375 30.1797C83.2969 30.1276 84.0781 30.0885 84.7812 30.0625C85.5104 30.0365 86.0833 30.0234 86.5 30.0234C87.9583 30.0234 89.4167 30.0625 90.875 30.1406L91.1484 27.6406L97.7109 28.6172C97.737 30.8828 97.75 33.1354 97.75 35.375C97.776 37.6146 97.7891 39.8802 97.7891 42.1719ZM90.875 41.4297C90.875 40.5964 90.862 39.7891 90.8359 39.0078C90.8099 38.2005 90.7708 37.3802 90.7188 36.5469C89.5729 36.2865 88.4271 36.0781 87.2812 35.9219C86.1354 35.7656 84.9635 35.6875 83.7656 35.6875C83.5573 35.6875 83.2448 35.7005 82.8281 35.7266C82.4115 35.7526 81.9688 35.8047 81.5 35.8828C81.0573 35.9349 80.6406 36.026 80.25 36.1562C79.8594 36.2604 79.5859 36.3906 79.4297 36.5469C79.1953 36.8073 79.0521 37.1068 79 37.4453C78.9479 37.7839 78.9219 38.1224 78.9219 38.4609C78.9219 38.7474 78.9479 39.1901 79 39.7891C79.0781 40.362 79.1693 40.9609 79.2734 41.5859C79.3776 42.2109 79.5078 42.7969 79.6641 43.3438C79.8203 43.8906 79.9766 44.2682 80.1328 44.4766C80.2891 44.6849 80.4844 44.8411 80.7188 44.9453C80.9531 45.0495 81.2005 45.1276 81.4609 45.1797C81.7474 45.2057 82.0208 45.2318 82.2812 45.2578C82.5677 45.2578 82.8151 45.2578 83.0234 45.2578C83.5443 45.2578 84.1693 45.2448 84.8984 45.2188C85.6536 45.1667 86.3958 45.0885 87.125 44.9844C87.8802 44.8802 88.5833 44.737 89.2344 44.5547C89.8854 44.3464 90.3802 44.0729 90.7188 43.7344C90.7708 43.7083 90.8099 43.5781 90.8359 43.3438C90.862 43.1094 90.875 42.862 90.875 42.6016C90.875 42.3411 90.875 42.0938 90.875 41.8594C90.875 41.625 90.875 41.4818 90.875 41.4297ZM118.141 27.3281C118.01 28.9167 117.958 30.5052 117.984 32.0938C118.01 33.6562 117.997 35.2188 117.945 36.7812L113.609 36.625C113.583 37.5365 113.557 38.4349 113.531 39.3203C113.531 40.2057 113.531 41.1042 113.531 42.0156C113.531 43.1094 113.531 44.1901 113.531 45.2578C113.557 46.2995 113.583 47.3672 113.609 48.4609L117.594 48.5391C117.542 49.2943 117.516 50.0625 117.516 50.8438C117.516 51.625 117.516 52.4062 117.516 53.1875C117.516 53.8385 117.529 54.4896 117.555 55.1406C117.607 55.7917 117.698 56.4297 117.828 57.0547L103.805 57.2891C103.805 56.013 103.792 54.763 103.766 53.5391C103.74 52.2891 103.687 51.026 103.609 49.75L106.148 49.7109C106.018 47.263 105.862 44.8411 105.68 42.4453C105.523 40.0495 105.354 37.6406 105.172 35.2188L101.461 34.75C101.409 33.6562 101.357 32.5755 101.305 31.5078C101.279 30.4141 101.24 29.3203 101.188 28.2266C104.026 28.1224 106.839 28.0052 109.625 27.875C112.438 27.7188 115.276 27.5365 118.141 27.3281ZM145.328 44.3984C145.328 45.1016 145.328 45.8177 145.328 46.5469C145.328 47.25 145.302 47.9531 145.25 48.6562L136.539 49.2031C136.643 47.849 136.721 46.5078 136.773 45.1797C136.852 43.8516 136.891 42.4974 136.891 41.1172C136.891 40.987 136.891 40.7656 136.891 40.4531C136.891 40.1406 136.878 39.8151 136.852 39.4766C136.826 39.112 136.799 38.7734 136.773 38.4609C136.747 38.1484 136.721 37.9271 136.695 37.7969C136.565 37.4323 136.422 37.1198 136.266 36.8594C136.135 36.599 135.966 36.3906 135.758 36.2344C135.576 36.0781 135.341 35.974 135.055 35.9219C134.768 35.8438 134.417 35.8047 134 35.8047C133.688 35.8047 133.284 35.8307 132.789 35.8828C132.32 35.9349 131.839 36.013 131.344 36.1172C130.849 36.2214 130.38 36.3516 129.938 36.5078C129.495 36.6641 129.182 36.8464 129 37.0547L128.922 48.5781C128.87 48.474 128.714 48.4219 128.453 48.4219C128.219 48.4219 128.049 48.4219 127.945 48.4219C127.164 48.4219 126.357 48.4609 125.523 48.5391C124.69 48.5911 123.883 48.6693 123.102 48.7734C122.763 45.7005 122.464 42.6406 122.203 39.5938C121.943 36.5469 121.643 33.487 121.305 30.4141C121.826 30.388 122.346 30.375 122.867 30.375C123.388 30.349 123.909 30.3359 124.43 30.3359C125.107 30.3359 125.784 30.362 126.461 30.4141C127.164 30.4401 127.854 30.4661 128.531 30.4922L128.805 33.5C129.534 32.3021 130.523 31.2995 131.773 30.4922C133.023 29.6849 134.365 29.2812 135.797 29.2812C136.526 29.2812 137.281 29.3203 138.062 29.3984C138.844 29.4766 139.586 29.6328 140.289 29.8672C141.018 30.1016 141.695 30.4271 142.32 30.8438C142.971 31.2604 143.518 31.7943 143.961 32.4453C144.169 32.7578 144.339 33.2266 144.469 33.8516C144.625 34.4505 144.755 35.1406 144.859 35.9219C144.964 36.6771 145.042 37.4844 145.094 38.3438C145.172 39.2031 145.224 40.0234 145.25 40.8047C145.276 41.5859 145.289 42.3021 145.289 42.9531C145.315 43.5781 145.328 44.0599 145.328 44.3984Z" fill="#EFEFEF"/>
</g>
<defs>
<clipPath id="clip0_292_69">
<rect width="164" height="84" fill="white"/>
</clipPath>
</defs>
</svg>
