<svg width="145" height="35" viewBox="0 0 145 35" fill="none" xmlns="http://www.w3.org/2000/svg">
<path d="M20.0391 29.0234C16.9401 29.2578 13.8542 29.4792 10.7812 29.6875C7.73438 29.8958 4.66146 30.0911 1.5625 30.2734C1.43229 25.2995 1.32812 20.3646 1.25 15.4688C1.17188 10.5469 1.02865 5.58594 0.820312 0.585938C2.5651 0.559896 4.28385 0.507812 5.97656 0.429688C7.66927 0.351562 9.375 0.247396 11.0938 0.117188C10.8073 2.04427 10.5339 3.98438 10.2734 5.9375C10.0391 7.86458 9.85677 9.80469 9.72656 11.7578C9.6224 13.3984 9.53125 15.0391 9.45312 16.6797C9.40104 18.2943 9.34896 19.9219 9.29688 21.5625C11.0156 21.6146 12.7083 21.6406 14.375 21.6406C16.0677 21.6406 17.7604 21.6667 19.4531 21.7188L20.0391 29.0234ZM51.0547 14.5312C51.0547 14.7396 51.0547 14.9479 51.0547 15.1562C51.0547 15.3385 51.0417 15.5339 51.0156 15.7422C50.9896 16.1068 50.9245 16.7057 50.8203 17.5391C50.7161 18.3724 50.5729 19.2448 50.3906 20.1562C50.2083 21.0417 49.987 21.862 49.7266 22.6172C49.4661 23.3724 49.1797 23.8542 48.8672 24.0625C48.7109 24.1667 48.1771 24.2578 47.2656 24.3359C46.3802 24.4141 45.2865 24.4922 43.9844 24.5703C42.7083 24.6484 41.3151 24.7135 39.8047 24.7656C38.2943 24.8177 36.849 24.8698 35.4688 24.9219C34.1146 24.9479 32.9167 24.974 31.875 25C30.8594 25.026 30.1823 25.0391 29.8438 25.0391C29.6875 25.0391 29.4141 25.0391 29.0234 25.0391C28.6589 25.0391 28.2682 25.0391 27.8516 25.0391C27.4349 25.013 27.0443 24.987 26.6797 24.9609C26.3151 24.9349 26.0547 24.8958 25.8984 24.8438C25.5339 24.7135 25.1693 24.5052 24.8047 24.2188C24.4401 23.9062 24.1016 23.5677 23.7891 23.2031C23.4766 22.8125 23.1901 22.4219 22.9297 22.0312C22.6953 21.6146 22.526 21.224 22.4219 20.8594C22.3438 20.5729 22.2786 20.1432 22.2266 19.5703C22.1745 18.9714 22.1354 18.3594 22.1094 17.7344C22.0833 17.0833 22.0573 16.4583 22.0312 15.8594C22.0312 15.2604 22.0312 14.8047 22.0312 14.4922C22.0312 13.9974 22.0443 13.3203 22.0703 12.4609C22.0964 11.5755 22.1745 10.6771 22.3047 9.76562C22.4349 8.85417 22.6172 8.00781 22.8516 7.22656C23.112 6.41927 23.4766 5.85938 23.9453 5.54688C24.1536 5.41667 24.5443 5.29948 25.1172 5.19531C25.6901 5.09115 26.3672 5 27.1484 4.92188C27.9297 4.84375 28.763 4.79167 29.6484 4.76562C30.5339 4.71354 31.3932 4.6875 32.2266 4.6875C33.0859 4.66146 33.8802 4.64844 34.6094 4.64844C35.3385 4.64844 35.9245 4.66146 36.3672 4.6875C36.7578 4.71354 37.3177 4.73958 38.0469 4.76562C38.776 4.76562 39.5833 4.77865 40.4688 4.80469C41.3802 4.83073 42.3177 4.88281 43.2812 4.96094C44.2448 5.01302 45.1432 5.09115 45.9766 5.19531C46.8099 5.29948 47.5391 5.44271 48.1641 5.625C48.8151 5.78125 49.2448 5.97656 49.4531 6.21094C49.7917 6.57552 50.0651 7.1224 50.2734 7.85156C50.4818 8.58073 50.638 9.36198 50.7422 10.1953C50.8724 11.0026 50.9505 11.8099 50.9766 12.6172C51.0286 13.3984 51.0547 14.0365 51.0547 14.5312ZM42.7734 15.3516C42.7734 15.0391 42.7604 14.6745 42.7344 14.2578C42.7083 13.8411 42.6693 13.4245 42.6172 13.0078C42.5651 12.5651 42.487 12.1484 42.3828 11.7578C42.2786 11.3411 42.1484 11.0026 41.9922 10.7422C41.7839 10.4036 41.3802 10.1432 40.7812 9.96094C40.1823 9.77865 39.5182 9.64844 38.7891 9.57031C38.0859 9.46615 37.3828 9.40104 36.6797 9.375C36.0026 9.34896 35.4948 9.33594 35.1562 9.33594C34.974 9.33594 34.6484 9.34896 34.1797 9.375C33.7109 9.375 33.2161 9.38802 32.6953 9.41406C32.2005 9.4401 31.7318 9.49219 31.2891 9.57031C30.8464 9.6224 30.5599 9.6875 30.4297 9.76562C30.1953 9.92188 30.013 10.1693 29.8828 10.5078C29.7526 10.8203 29.6484 11.1719 29.5703 11.5625C29.5182 11.9531 29.4792 12.3438 29.4531 12.7344C29.4531 13.099 29.4531 13.3984 29.4531 13.6328C29.4531 13.8672 29.4661 14.2969 29.4922 14.9219C29.5443 15.5208 29.5964 16.1719 29.6484 16.875C29.7266 17.5521 29.8177 18.1771 29.9219 18.75C30.026 19.3229 30.1562 19.6875 30.3125 19.8438C30.4948 20.0521 30.8333 20.2214 31.3281 20.3516C31.849 20.4818 32.3958 20.599 32.9688 20.7031C33.5677 20.7812 34.1406 20.8464 34.6875 20.8984C35.2344 20.9245 35.625 20.9375 35.8594 20.9375C36.276 20.9375 36.7708 20.9245 37.3438 20.8984C37.9167 20.8724 38.4896 20.8073 39.0625 20.7031C39.6615 20.599 40.2214 20.4557 40.7422 20.2734C41.263 20.0911 41.6797 19.8438 41.9922 19.5312C42.1745 19.349 42.3177 19.0755 42.4219 18.7109C42.526 18.3464 42.6042 17.9557 42.6562 17.5391C42.7083 17.1224 42.7344 16.7188 42.7344 16.3281C42.7604 15.9115 42.7734 15.5859 42.7734 15.3516ZM80.7422 16.1719C80.7422 17.2656 80.7292 18.3594 80.7031 19.4531C80.7031 20.5208 80.7031 21.6016 80.7031 22.6953C80.6771 23.2682 80.6641 23.8542 80.6641 24.4531C80.6901 25.0521 80.6771 25.651 80.625 26.25C80.5469 26.8229 80.4688 27.4349 80.3906 28.0859C80.3125 28.7109 80.1823 29.3359 80 29.9609C79.8177 30.5859 79.5703 31.1719 79.2578 31.7188C78.9714 32.2656 78.5807 32.7344 78.0859 33.125C77.9557 33.2292 77.6953 33.3203 77.3047 33.3984C76.9141 33.4766 76.4583 33.5547 75.9375 33.6328C75.4167 33.7109 74.8568 33.776 74.2578 33.8281C73.6589 33.8802 73.0859 33.9193 72.5391 33.9453C71.9922 33.9974 71.4974 34.0365 71.0547 34.0625C70.612 34.1146 70.2995 34.1406 70.1172 34.1406C68.4766 34.1927 66.849 34.2318 65.2344 34.2578C63.6458 34.2839 62.0312 34.2969 60.3906 34.2969H57.8906C57.8385 33.8542 57.7865 33.3984 57.7344 32.9297C57.6823 32.4609 57.6562 31.9922 57.6562 31.5234C57.6562 31.0026 57.6042 30.4688 57.5 29.9219C57.3958 29.349 57.2786 28.7891 57.1484 28.2422L59.7266 28.2812C59.8828 28.2812 60.3125 28.2812 61.0156 28.2812C61.7448 28.2552 62.5911 28.2422 63.5547 28.2422C64.5182 28.2161 65.5469 28.1901 66.6406 28.1641C67.7604 28.112 68.7891 28.0469 69.7266 27.9688C70.6641 27.8906 71.4583 27.7995 72.1094 27.6953C72.7865 27.5911 73.1641 27.474 73.2422 27.3438C73.4505 27.0052 73.5807 26.6276 73.6328 26.2109C73.6849 25.7682 73.7109 25.3516 73.7109 24.9609C73.7109 24.7526 73.6979 24.5443 73.6719 24.3359C73.6719 24.1016 73.6589 23.8802 73.6328 23.6719C72.1745 23.776 70.7292 23.8672 69.2969 23.9453C67.8646 24.0234 66.4062 24.0625 64.9219 24.0625C64.5833 24.0625 64.1536 24.0625 63.6328 24.0625C63.138 24.0625 62.6172 24.0495 62.0703 24.0234C61.5495 23.9974 61.0286 23.9583 60.5078 23.9062C60.013 23.8542 59.6094 23.776 59.2969 23.6719C58.776 23.5156 58.2422 23.3464 57.6953 23.1641C57.1745 22.9557 56.6797 22.7083 56.2109 22.4219C55.7422 22.1354 55.3255 21.7969 54.9609 21.4062C54.6224 20.9896 54.388 20.4948 54.2578 19.9219C54.1797 19.6354 54.1276 19.3229 54.1016 18.9844C54.1016 18.6458 54.1016 18.3333 54.1016 18.0469C54.1016 17.3177 54.1406 16.3932 54.2188 15.2734C54.2969 14.1536 54.4271 13.0208 54.6094 11.875C54.8177 10.7031 55.0781 9.60938 55.3906 8.59375C55.7292 7.55208 56.1458 6.77083 56.6406 6.25C56.9271 5.9375 57.3828 5.66406 58.0078 5.42969C58.6589 5.19531 59.388 5 60.1953 4.84375C61.0026 4.6875 61.849 4.55729 62.7344 4.45312C63.6458 4.32292 64.5312 4.23177 65.3906 4.17969C66.25 4.1276 67.0312 4.08854 67.7344 4.0625C68.4635 4.03646 69.0365 4.02344 69.4531 4.02344C70.9115 4.02344 72.3698 4.0625 73.8281 4.14062L74.1016 1.64062L80.6641 2.61719C80.6901 4.88281 80.7031 7.13542 80.7031 9.375C80.7292 11.6146 80.7422 13.8802 80.7422 16.1719ZM73.8281 15.4297C73.8281 14.5964 73.8151 13.7891 73.7891 13.0078C73.763 12.2005 73.724 11.3802 73.6719 10.5469C72.526 10.2865 71.3802 10.0781 70.2344 9.92188C69.0885 9.76562 67.9167 9.6875 66.7188 9.6875C66.5104 9.6875 66.1979 9.70052 65.7812 9.72656C65.3646 9.7526 64.9219 9.80469 64.4531 9.88281C64.0104 9.9349 63.5938 10.026 63.2031 10.1562C62.8125 10.2604 62.5391 10.3906 62.3828 10.5469C62.1484 10.8073 62.0052 11.1068 61.9531 11.4453C61.901 11.7839 61.875 12.1224 61.875 12.4609C61.875 12.7474 61.901 13.1901 61.9531 13.7891C62.0312 14.362 62.1224 14.9609 62.2266 15.5859C62.3307 16.2109 62.4609 16.7969 62.6172 17.3438C62.7734 17.8906 62.9297 18.2682 63.0859 18.4766C63.2422 18.6849 63.4375 18.8411 63.6719 18.9453C63.9062 19.0495 64.1536 19.1276 64.4141 19.1797C64.7005 19.2057 64.974 19.2318 65.2344 19.2578C65.5208 19.2578 65.7682 19.2578 65.9766 19.2578C66.4974 19.2578 67.1224 19.2448 67.8516 19.2188C68.6068 19.1667 69.349 19.0885 70.0781 18.9844C70.8333 18.8802 71.5365 18.737 72.1875 18.5547C72.8385 18.3464 73.3333 18.0729 73.6719 17.7344C73.724 17.7083 73.763 17.5781 73.7891 17.3438C73.8151 17.1094 73.8281 16.862 73.8281 16.6016C73.8281 16.3411 73.8281 16.0938 73.8281 15.8594C73.8281 15.625 73.8281 15.4818 73.8281 15.4297ZM117.188 1.32812C117.057 2.91667 117.005 4.50521 117.031 6.09375C117.057 7.65625 117.044 9.21875 116.992 10.7812L112.656 10.625C112.63 11.5365 112.604 12.4349 112.578 13.3203C112.578 14.2057 112.578 15.1042 112.578 16.0156C112.578 17.1094 112.578 18.1901 112.578 19.2578C112.604 20.2995 112.63 21.3672 112.656 22.4609L116.641 22.5391C116.589 23.2943 116.562 24.0625 116.562 24.8438C116.562 25.625 116.562 26.4062 116.562 27.1875C116.562 27.8385 116.576 28.4896 116.602 29.1406C116.654 29.7917 116.745 30.4297 116.875 31.0547L102.852 31.2891C102.852 30.013 102.839 28.763 102.812 27.5391C102.786 26.2891 102.734 25.026 102.656 23.75L105.195 23.7109C105.065 21.263 104.909 18.8411 104.727 16.4453C104.57 14.0495 104.401 11.6406 104.219 9.21875L100.508 8.75C100.456 7.65625 100.404 6.57552 100.352 5.50781C100.326 4.41406 100.286 3.32031 100.234 2.22656C103.073 2.1224 105.885 2.00521 108.672 1.875C111.484 1.71875 114.323 1.53646 117.188 1.32812ZM144.375 18.3984C144.375 19.1016 144.375 19.8177 144.375 20.5469C144.375 21.25 144.349 21.9531 144.297 22.6562L135.586 23.2031C135.69 21.849 135.768 20.5078 135.82 19.1797C135.898 17.8516 135.938 16.4974 135.938 15.1172C135.938 14.987 135.938 14.7656 135.938 14.4531C135.938 14.1406 135.924 13.8151 135.898 13.4766C135.872 13.112 135.846 12.7734 135.82 12.4609C135.794 12.1484 135.768 11.9271 135.742 11.7969C135.612 11.4323 135.469 11.1198 135.312 10.8594C135.182 10.599 135.013 10.3906 134.805 10.2344C134.622 10.0781 134.388 9.97396 134.102 9.92188C133.815 9.84375 133.464 9.80469 133.047 9.80469C132.734 9.80469 132.331 9.83073 131.836 9.88281C131.367 9.9349 130.885 10.013 130.391 10.1172C129.896 10.2214 129.427 10.3516 128.984 10.5078C128.542 10.6641 128.229 10.8464 128.047 11.0547L127.969 22.5781C127.917 22.474 127.76 22.4219 127.5 22.4219C127.266 22.4219 127.096 22.4219 126.992 22.4219C126.211 22.4219 125.404 22.4609 124.57 22.5391C123.737 22.5911 122.93 22.6693 122.148 22.7734C121.81 19.7005 121.51 16.6406 121.25 13.5938C120.99 10.5469 120.69 7.48698 120.352 4.41406C120.872 4.38802 121.393 4.375 121.914 4.375C122.435 4.34896 122.956 4.33594 123.477 4.33594C124.154 4.33594 124.831 4.36198 125.508 4.41406C126.211 4.4401 126.901 4.46615 127.578 4.49219L127.852 7.5C128.581 6.30208 129.57 5.29948 130.82 4.49219C132.07 3.6849 133.411 3.28125 134.844 3.28125C135.573 3.28125 136.328 3.32031 137.109 3.39844C137.891 3.47656 138.633 3.63281 139.336 3.86719C140.065 4.10156 140.742 4.42708 141.367 4.84375C142.018 5.26042 142.565 5.79427 143.008 6.44531C143.216 6.75781 143.385 7.22656 143.516 7.85156C143.672 8.45052 143.802 9.14062 143.906 9.92188C144.01 10.6771 144.089 11.4844 144.141 12.3438C144.219 13.2031 144.271 14.0234 144.297 14.8047C144.323 15.5859 144.336 16.3021 144.336 16.9531C144.362 17.5781 144.375 18.0599 144.375 18.3984Z" fill="black"/>
</svg>
