<svg width="199" height="57" viewBox="0 0 199 57" fill="none" xmlns="http://www.w3.org/2000/svg">
<path d="M38.9922 36.125C38.9922 37.375 38.6927 38.3906 38.0938 39.1719C37.4948 39.9271 36.6484 40.5391 35.5547 41.0078C34.6432 41.3984 33.4974 41.7109 32.1172 41.9453C30.737 42.1536 29.3047 42.3099 27.8203 42.4141C26.3359 42.4922 24.8776 42.5443 23.4453 42.5703C22.013 42.5964 20.8151 42.6094 19.8516 42.6094C18.2109 42.6094 16.5833 42.5833 14.9688 42.5312C13.3802 42.4792 11.7656 42.401 10.125 42.2969C10.2031 39.6406 10.125 37.0104 9.89062 34.4062C11.8438 34.4583 13.7839 34.5104 15.7109 34.5625C17.6641 34.5885 19.6172 34.6276 21.5703 34.6797C22.3255 34.7057 23.0807 34.7318 23.8359 34.7578C24.6172 34.7839 25.3984 34.7969 26.1797 34.7969C26.3099 34.7969 26.5052 34.7969 26.7656 34.7969C27.026 34.7969 27.2995 34.7839 27.5859 34.7578C27.8724 34.7318 28.1328 34.6927 28.3672 34.6406C28.6276 34.5885 28.8229 34.5104 28.9531 34.4062C29.0573 34.3021 29.1224 34.1589 29.1484 33.9766C29.1745 33.7682 29.1875 33.5859 29.1875 33.4297C29.1875 33.1432 29.1484 32.8047 29.0703 32.4141C28.9922 31.9974 28.875 31.6589 28.7188 31.3984C28.6927 31.3724 28.6016 31.3464 28.4453 31.3203C28.3151 31.2943 28.1589 31.2812 27.9766 31.2812C27.7943 31.2552 27.625 31.2422 27.4688 31.2422C27.3125 31.2161 27.2214 31.2031 27.1953 31.2031C25.5286 31.0729 23.862 30.9818 22.1953 30.9297C20.5547 30.8776 18.901 30.7865 17.2344 30.6562C16.4792 30.5781 15.6979 30.5 14.8906 30.4219C14.1094 30.3438 13.3802 30.2005 12.7031 29.9922C12.0521 29.8099 11.4922 29.4062 11.0234 28.7812C10.5807 28.1302 10.2161 27.401 9.92969 26.5938C9.66927 25.7604 9.47396 24.9271 9.34375 24.0938C9.23958 23.2604 9.1875 22.5573 9.1875 21.9844C9.1875 21.0469 9.27865 20.1615 9.46094 19.3281C9.64323 18.4688 9.92969 17.6745 10.3203 16.9453C10.737 16.2161 11.2578 15.5781 11.8828 15.0312C12.5078 14.4583 13.276 13.9896 14.1875 13.625C15.75 13.026 17.4167 12.6094 19.1875 12.375C20.9844 12.1406 22.7031 12.0234 24.3438 12.0234C26.2708 12.0234 28.1719 12.1406 30.0469 12.375C31.9219 12.6094 33.7969 12.9089 35.6719 13.2734C35.6458 14.0286 35.6198 14.7839 35.5938 15.5391C35.5938 16.2682 35.5938 17.0104 35.5938 17.7656C35.5938 18.5208 35.6328 19.2891 35.7109 20.0703C35.7891 20.8255 35.8672 21.5807 35.9453 22.3359C33.4714 22.388 30.9974 22.4401 28.5234 22.4922C26.0755 22.5182 23.6016 22.5833 21.1016 22.6875C20.7891 22.6875 20.3594 22.7005 19.8125 22.7266C19.2917 22.7526 18.7839 22.7917 18.2891 22.8438C17.7943 22.8698 17.3646 22.8958 17 22.9219C16.6354 22.9479 16.4531 22.9609 16.4531 22.9609C16.3229 23.2474 16.2448 23.5469 16.2188 23.8594C16.1927 24.1458 16.1797 24.4453 16.1797 24.7578C16.1797 24.9141 16.1797 25.1094 16.1797 25.3438C16.2057 25.5781 16.2708 25.7604 16.375 25.8906C16.401 25.9167 16.6224 25.9557 17.0391 26.0078C17.4557 26.0599 17.9115 26.112 18.4062 26.1641C18.9271 26.2161 19.4089 26.2682 19.8516 26.3203C20.3203 26.3724 20.6068 26.3984 20.7109 26.3984C21.5703 26.4766 22.5729 26.5677 23.7188 26.6719C24.8906 26.776 26.0755 26.8932 27.2734 27.0234C28.4974 27.1536 29.6693 27.3229 30.7891 27.5312C31.9089 27.7135 32.8854 27.9349 33.7188 28.1953C34.474 28.4557 35.1641 28.8724 35.7891 29.4453C36.4401 29.9922 37 30.6432 37.4688 31.3984C37.9375 32.1276 38.3021 32.9089 38.5625 33.7422C38.849 34.5495 38.9922 35.3438 38.9922 36.125ZM48.8359 16.8672C48.8359 17.388 48.7188 17.8828 48.4844 18.3516C48.276 18.7943 47.9766 19.1849 47.5859 19.5234C47.2214 19.862 46.8047 20.1354 46.3359 20.3438C45.8672 20.526 45.3984 20.6172 44.9297 20.6172C44.4089 20.6172 43.9141 20.5 43.4453 20.2656C43.0026 20.0312 42.612 19.7318 42.2734 19.3672C41.9349 19.0026 41.6745 18.5859 41.4922 18.1172C41.3099 17.6224 41.2188 17.1276 41.2188 16.6328C41.2188 16.138 41.3099 15.6823 41.4922 15.2656C41.7005 14.8229 41.9609 14.4453 42.2734 14.1328C42.612 13.8203 42.9896 13.5729 43.4062 13.3906C43.849 13.2083 44.3177 13.1172 44.8125 13.1172C45.3073 13.1172 45.7891 13.2214 46.2578 13.4297C46.7526 13.612 47.1823 13.8854 47.5469 14.25C47.9375 14.5885 48.25 14.9922 48.4844 15.4609C48.7188 15.9036 48.8359 16.3724 48.8359 16.8672ZM50.4375 23.5078C50.3073 24.888 50.2031 26.2552 50.125 27.6094C50.0469 28.9635 49.9688 30.3177 49.8906 31.6719C49.7865 33.2604 49.6042 34.8359 49.3438 36.3984C49.1094 37.9609 48.8359 39.5234 48.5234 41.0859L42.5469 41.7109C42.5469 40.8776 42.5469 40.0573 42.5469 39.25C42.5729 38.4427 42.5859 37.6224 42.5859 36.7891C42.5859 34.6536 42.5469 32.5182 42.4688 30.3828C42.3906 28.2474 42.3125 26.112 42.2344 23.9766C43.6146 23.9245 44.9688 23.8464 46.2969 23.7422C47.651 23.638 49.0312 23.5599 50.4375 23.5078ZM80.5156 29.1719C80.5156 30.2656 80.5026 31.3594 80.4766 32.4531C80.4766 33.5208 80.4766 34.6016 80.4766 35.6953C80.4505 36.2682 80.4375 36.8542 80.4375 37.4531C80.4635 38.0521 80.4505 38.651 80.3984 39.25C80.3203 39.8229 80.2422 40.4349 80.1641 41.0859C80.0859 41.7109 79.9557 42.3359 79.7734 42.9609C79.5911 43.5859 79.3438 44.1719 79.0312 44.7188C78.7448 45.2656 78.3542 45.7344 77.8594 46.125C77.7292 46.2292 77.4688 46.3203 77.0781 46.3984C76.6875 46.4766 76.2318 46.5547 75.7109 46.6328C75.1901 46.7109 74.6302 46.776 74.0312 46.8281C73.4323 46.8802 72.8594 46.9193 72.3125 46.9453C71.7656 46.9974 71.2708 47.0365 70.8281 47.0625C70.3854 47.1146 70.0729 47.1406 69.8906 47.1406C68.25 47.1927 66.6224 47.2318 65.0078 47.2578C63.4193 47.2839 61.8047 47.2969 60.1641 47.2969H57.6641C57.612 46.8542 57.5599 46.3984 57.5078 45.9297C57.4557 45.4609 57.4297 44.9922 57.4297 44.5234C57.4297 44.0026 57.3776 43.4688 57.2734 42.9219C57.1693 42.349 57.0521 41.7891 56.9219 41.2422L59.5 41.2812C59.6562 41.2812 60.0859 41.2812 60.7891 41.2812C61.5182 41.2552 62.3646 41.2422 63.3281 41.2422C64.2917 41.2161 65.3203 41.1901 66.4141 41.1641C67.5339 41.112 68.5625 41.0469 69.5 40.9688C70.4375 40.8906 71.2318 40.7995 71.8828 40.6953C72.5599 40.5911 72.9375 40.474 73.0156 40.3438C73.224 40.0052 73.3542 39.6276 73.4062 39.2109C73.4583 38.7682 73.4844 38.3516 73.4844 37.9609C73.4844 37.7526 73.4714 37.5443 73.4453 37.3359C73.4453 37.1016 73.4323 36.8802 73.4062 36.6719C71.9479 36.776 70.5026 36.8672 69.0703 36.9453C67.638 37.0234 66.1797 37.0625 64.6953 37.0625C64.3568 37.0625 63.9271 37.0625 63.4062 37.0625C62.9115 37.0625 62.3906 37.0495 61.8438 37.0234C61.3229 36.9974 60.8021 36.9583 60.2812 36.9062C59.7865 36.8542 59.3828 36.776 59.0703 36.6719C58.5495 36.5156 58.0156 36.3464 57.4688 36.1641C56.9479 35.9557 56.4531 35.7083 55.9844 35.4219C55.5156 35.1354 55.099 34.7969 54.7344 34.4062C54.3958 33.9896 54.1615 33.4948 54.0312 32.9219C53.9531 32.6354 53.901 32.3229 53.875 31.9844C53.875 31.6458 53.875 31.3333 53.875 31.0469C53.875 30.3177 53.9141 29.3932 53.9922 28.2734C54.0703 27.1536 54.2005 26.0208 54.3828 24.875C54.5911 23.7031 54.8516 22.6094 55.1641 21.5938C55.5026 20.5521 55.9193 19.7708 56.4141 19.25C56.7005 18.9375 57.1562 18.6641 57.7812 18.4297C58.4323 18.1953 59.1615 18 59.9688 17.8438C60.776 17.6875 61.6224 17.5573 62.5078 17.4531C63.4193 17.3229 64.3047 17.2318 65.1641 17.1797C66.0234 17.1276 66.8047 17.0885 67.5078 17.0625C68.237 17.0365 68.8099 17.0234 69.2266 17.0234C70.6849 17.0234 72.1432 17.0625 73.6016 17.1406L73.875 14.6406L80.4375 15.6172C80.4635 17.8828 80.4766 20.1354 80.4766 22.375C80.5026 24.6146 80.5156 26.8802 80.5156 29.1719ZM73.6016 28.4297C73.6016 27.5964 73.5885 26.7891 73.5625 26.0078C73.5365 25.2005 73.4974 24.3802 73.4453 23.5469C72.2995 23.2865 71.1536 23.0781 70.0078 22.9219C68.862 22.7656 67.6901 22.6875 66.4922 22.6875C66.2839 22.6875 65.9714 22.7005 65.5547 22.7266C65.138 22.7526 64.6953 22.8047 64.2266 22.8828C63.7839 22.9349 63.3672 23.026 62.9766 23.1562C62.5859 23.2604 62.3125 23.3906 62.1562 23.5469C61.9219 23.8073 61.7786 24.1068 61.7266 24.4453C61.6745 24.7839 61.6484 25.1224 61.6484 25.4609C61.6484 25.7474 61.6745 26.1901 61.7266 26.7891C61.8047 27.362 61.8958 27.9609 62 28.5859C62.1042 29.2109 62.2344 29.7969 62.3906 30.3438C62.5469 30.8906 62.7031 31.2682 62.8594 31.4766C63.0156 31.6849 63.2109 31.8411 63.4453 31.9453C63.6797 32.0495 63.9271 32.1276 64.1875 32.1797C64.474 32.2057 64.7474 32.2318 65.0078 32.2578C65.2943 32.2578 65.5417 32.2578 65.75 32.2578C66.2708 32.2578 66.8958 32.2448 67.625 32.2188C68.3802 32.1667 69.1224 32.0885 69.8516 31.9844C70.6068 31.8802 71.3099 31.737 71.9609 31.5547C72.612 31.3464 73.1068 31.0729 73.4453 30.7344C73.4974 30.7083 73.5365 30.5781 73.5625 30.3438C73.5885 30.1094 73.6016 29.862 73.6016 29.6016C73.6016 29.3411 73.6016 29.0938 73.6016 28.8594C73.6016 28.625 73.6016 28.4818 73.6016 28.4297ZM107.703 31.3984C107.703 32.1016 107.703 32.8177 107.703 33.5469C107.703 34.25 107.677 34.9531 107.625 35.6562L98.9141 36.2031C99.0182 34.849 99.0964 33.5078 99.1484 32.1797C99.2266 30.8516 99.2656 29.4974 99.2656 28.1172C99.2656 27.987 99.2656 27.7656 99.2656 27.4531C99.2656 27.1406 99.2526 26.8151 99.2266 26.4766C99.2005 26.112 99.1745 25.7734 99.1484 25.4609C99.1224 25.1484 99.0964 24.9271 99.0703 24.7969C98.9401 24.4323 98.7969 24.1198 98.6406 23.8594C98.5104 23.599 98.3411 23.3906 98.1328 23.2344C97.9505 23.0781 97.7161 22.974 97.4297 22.9219C97.1432 22.8438 96.7917 22.8047 96.375 22.8047C96.0625 22.8047 95.6589 22.8307 95.1641 22.8828C94.6953 22.9349 94.2135 23.013 93.7188 23.1172C93.224 23.2214 92.7552 23.3516 92.3125 23.5078C91.8698 23.6641 91.5573 23.8464 91.375 24.0547L91.2969 35.5781C91.2448 35.474 91.0885 35.4219 90.8281 35.4219C90.5938 35.4219 90.4245 35.4219 90.3203 35.4219C89.5391 35.4219 88.7318 35.4609 87.8984 35.5391C87.0651 35.5911 86.2578 35.6693 85.4766 35.7734C85.138 32.7005 84.8385 29.6406 84.5781 26.5938C84.3177 23.5469 84.0182 20.487 83.6797 17.4141C84.2005 17.388 84.7214 17.375 85.2422 17.375C85.763 17.349 86.2839 17.3359 86.8047 17.3359C87.4818 17.3359 88.1589 17.362 88.8359 17.4141C89.5391 17.4401 90.2292 17.4661 90.9062 17.4922L91.1797 20.5C91.9089 19.3021 92.8984 18.2995 94.1484 17.4922C95.3984 16.6849 96.7396 16.2812 98.1719 16.2812C98.901 16.2812 99.6562 16.3203 100.438 16.3984C101.219 16.4766 101.961 16.6328 102.664 16.8672C103.393 17.1016 104.07 17.4271 104.695 17.8438C105.346 18.2604 105.893 18.7943 106.336 19.4453C106.544 19.7578 106.714 20.2266 106.844 20.8516C107 21.4505 107.13 22.1406 107.234 22.9219C107.339 23.6771 107.417 24.4844 107.469 25.3438C107.547 26.2031 107.599 27.0234 107.625 27.8047C107.651 28.5859 107.664 29.3021 107.664 29.9531C107.69 30.5781 107.703 31.0599 107.703 31.3984ZM157.938 30.1094C157.938 31.5938 157.898 33.0651 157.82 34.5234C157.768 35.9818 157.638 37.4531 157.43 38.9375C157.013 39.25 156.596 39.5495 156.18 39.8359C155.763 40.0964 155.333 40.3828 154.891 40.6953C154.526 40.9297 154.122 41.2031 153.68 41.5156C153.263 41.8021 152.82 42.0885 152.352 42.375C151.883 42.6615 151.401 42.9089 150.906 43.1172C150.438 43.3516 149.995 43.5078 149.578 43.5859C149.188 43.6901 148.667 43.7292 148.016 43.7031C147.365 43.7031 146.818 43.7031 146.375 43.7031C145.281 43.7552 144.188 43.7943 143.094 43.8203C142 43.8464 140.88 43.8594 139.734 43.8594C139.214 43.8594 138.615 43.8594 137.938 43.8594C137.26 43.8854 136.648 43.8333 136.102 43.7031C135.945 43.6771 135.685 43.5469 135.32 43.3125C134.956 43.1042 134.539 42.8438 134.07 42.5312C133.628 42.1927 133.159 41.8411 132.664 41.4766C132.169 41.0859 131.688 40.7214 131.219 40.3828C130.776 40.0182 130.385 39.7057 130.047 39.4453C129.734 39.1589 129.513 38.9635 129.383 38.8594C129.253 37.4792 129.148 36.112 129.07 34.7578C129.018 33.3776 128.992 31.9974 128.992 30.6172C128.992 27.9349 129.083 25.2786 129.266 22.6484C129.474 20.0182 129.695 17.375 129.93 14.7188L137.977 14.5234C137.716 16.1901 137.534 17.9609 137.43 19.8359C137.326 21.6849 137.273 23.4688 137.273 25.1875C137.273 25.474 137.286 25.9818 137.312 26.7109C137.339 27.4141 137.391 28.1693 137.469 28.9766C137.547 29.7839 137.638 30.526 137.742 31.2031C137.872 31.8802 138.029 32.3229 138.211 32.5312C138.289 32.6094 138.484 32.6875 138.797 32.7656C139.135 32.8177 139.526 32.8698 139.969 32.9219C140.438 32.974 140.932 33.013 141.453 33.0391C141.974 33.0651 142.469 33.0911 142.938 33.1172C143.406 33.1172 143.823 33.1302 144.188 33.1562C144.552 33.1562 144.812 33.1562 144.969 33.1562C145.099 33.1562 145.32 33.1562 145.633 33.1562C145.945 33.1562 146.258 33.1562 146.57 33.1562C146.909 33.1302 147.221 33.1042 147.508 33.0781C147.794 33.0521 147.99 33 148.094 32.9219C148.406 32.7135 148.641 32.2057 148.797 31.3984C148.953 30.5911 149.07 29.7057 149.148 28.7422C149.227 27.7786 149.266 26.8542 149.266 25.9688C149.266 25.0833 149.266 24.4453 149.266 24.0547C149.266 23.4557 149.266 22.8568 149.266 22.2578C149.292 21.6589 149.305 21.0599 149.305 20.4609C149.305 19.237 149.292 18.0391 149.266 16.8672C149.24 15.6693 149.201 14.4583 149.148 13.2344C149.695 13.2865 150.229 13.3255 150.75 13.3516C151.297 13.3516 151.844 13.3516 152.391 13.3516C153.042 13.3516 153.68 13.3385 154.305 13.3125C154.956 13.2865 155.594 13.2083 156.219 13.0781C156.766 15.8646 157.182 18.6901 157.469 21.5547C157.781 24.3932 157.938 27.2448 157.938 30.1094ZM190.398 29.6797C190.398 30.0443 190.385 30.4479 190.359 30.8906C190.359 31.3073 190.32 31.737 190.242 32.1797C190.19 32.6224 190.099 33.0521 189.969 33.4688C189.865 33.8594 189.708 34.2109 189.5 34.5234C189.057 35.1745 188.641 35.7344 188.25 36.2031C187.859 36.6458 187.43 37.0234 186.961 37.3359C186.518 37.6224 186.01 37.8568 185.438 38.0391C184.865 38.2214 184.188 38.3646 183.406 38.4688C182.234 38.651 181.076 38.8203 179.93 38.9766C178.784 39.1068 177.625 39.1719 176.453 39.1719C175.932 39.1719 175.398 39.1458 174.852 39.0938C174.305 39.0417 173.797 38.8724 173.328 38.5859C173.068 38.4557 172.781 38.2865 172.469 38.0781C172.182 37.8438 171.896 37.6094 171.609 37.375C171.323 37.1146 171.036 36.8672 170.75 36.6328C170.49 36.3724 170.255 36.151 170.047 35.9688L169.812 45.7734C169.083 45.8255 168.354 45.8385 167.625 45.8125C166.896 45.8125 166.154 45.8125 165.398 45.8125C164.956 45.8125 164.526 45.8125 164.109 45.8125C163.719 45.8385 163.302 45.8646 162.859 45.8906C162.964 43.651 163.055 41.4245 163.133 39.2109C163.237 36.9714 163.289 34.7448 163.289 32.5312V32.0625C163.289 29.5885 163.224 27.1276 163.094 24.6797C162.964 22.2318 162.846 19.7708 162.742 17.2969C164.044 17.1927 165.333 17.1016 166.609 17.0234C167.885 16.9453 169.174 16.8542 170.477 16.75L170.75 18.8203C172.547 18.612 174.344 18.4427 176.141 18.3125C177.964 18.1562 179.786 18.0781 181.609 18.0781C181.844 18.0781 182.091 18.0781 182.352 18.0781C182.638 18.0521 182.898 18.0651 183.133 18.1172C183.758 18.2474 184.396 18.4167 185.047 18.625C185.698 18.8073 186.31 19.0547 186.883 19.3672C187.456 19.6797 187.964 20.0833 188.406 20.5781C188.849 21.0469 189.188 21.6198 189.422 22.2969C189.578 22.8177 189.721 23.3906 189.852 24.0156C189.982 24.6406 190.086 25.2917 190.164 25.9688C190.242 26.6198 190.294 27.2708 190.32 27.9219C190.372 28.5469 190.398 29.1328 190.398 29.6797ZM182.703 28.9766C182.703 28.6641 182.677 28.3255 182.625 27.9609C182.573 27.5964 182.443 27.2969 182.234 27.0625C181.714 26.4635 181.062 26.0078 180.281 25.6953C179.5 25.3568 178.732 25.1875 177.977 25.1875C177.352 25.1875 176.674 25.2526 175.945 25.3828C175.216 25.487 174.487 25.6432 173.758 25.8516C173.029 26.0339 172.312 26.2552 171.609 26.5156C170.906 26.75 170.268 26.9844 169.695 27.2188L170.047 32.4531C171.01 32.7396 172.039 33 173.133 33.2344C174.253 33.4688 175.307 33.5859 176.297 33.5859C176.557 33.5859 176.961 33.599 177.508 33.625C178.055 33.625 178.615 33.612 179.188 33.5859C179.786 33.5339 180.333 33.4688 180.828 33.3906C181.349 33.3125 181.688 33.1693 181.844 32.9609C181.974 32.8047 182.091 32.5573 182.195 32.2188C182.299 31.8542 182.391 31.4766 182.469 31.0859C182.547 30.6693 182.599 30.2786 182.625 29.9141C182.677 29.5234 182.703 29.2109 182.703 28.9766Z" fill="black"/>
</svg>
