<svg width="224" height="95" viewBox="0 0 224 95" fill="none" xmlns="http://www.w3.org/2000/svg">
<g clip-path="url(#clip0_292_69)">
<path d="M34.9344 57.7937C54.2282 57.7937 69.8689 44.8561 69.8689 28.8969C69.8689 12.9376 54.2282 0 34.9344 0C15.6407 0 0 12.9376 0 28.8969C0 44.8561 15.6407 57.7937 34.9344 57.7937Z" fill="#5D3819"/>
<path d="M34.9344 92.5196C54.2282 92.5196 69.8689 79.582 69.8689 63.6227C69.8689 47.6635 54.2282 34.7259 34.9344 34.7259C15.6407 34.7259 0 47.6635 0 63.6227C0 79.582 15.6407 92.5196 34.9344 92.5196Z" fill="#5D3819"/>
<path d="M189.066 60.2741C208.36 60.2741 224 47.3365 224 31.3773C224 15.418 208.36 2.48041 189.066 2.48041C169.772 2.48041 154.131 15.418 154.131 31.3773C154.131 47.3365 169.772 60.2741 189.066 60.2741Z" fill="#5D3819"/>
<path d="M189.066 95C208.36 95 224 82.0624 224 66.1031C224 50.1439 208.36 37.2063 189.066 37.2063C169.772 37.2063 154.131 50.1439 154.131 66.1031C154.131 82.0624 169.772 95 189.066 95Z" fill="#5D3819"/>
<path d="M201.51 13.1462H30.8862V81.3577H201.51V13.1462Z" fill="#5D3819"/>
<path d="M49.9922 55.125C49.9922 56.375 49.6927 57.3906 49.0938 58.1719C48.4948 58.9271 47.6484 59.5391 46.5547 60.0078C45.6432 60.3984 44.4974 60.7109 43.1172 60.9453C41.737 61.1536 40.3047 61.3099 38.8203 61.4141C37.3359 61.4922 35.8776 61.5443 34.4453 61.5703C33.013 61.5964 31.8151 61.6094 30.8516 61.6094C29.2109 61.6094 27.5833 61.5833 25.9688 61.5312C24.3802 61.4792 22.7656 61.401 21.125 61.2969C21.2031 58.6406 21.125 56.0104 20.8906 53.4062C22.8438 53.4583 24.7839 53.5104 26.7109 53.5625C28.6641 53.5885 30.6172 53.6276 32.5703 53.6797C33.3255 53.7057 34.0807 53.7318 34.8359 53.7578C35.6172 53.7839 36.3984 53.7969 37.1797 53.7969C37.3099 53.7969 37.5052 53.7969 37.7656 53.7969C38.026 53.7969 38.2995 53.7839 38.5859 53.7578C38.8724 53.7318 39.1328 53.6927 39.3672 53.6406C39.6276 53.5885 39.8229 53.5104 39.9531 53.4062C40.0573 53.3021 40.1224 53.1589 40.1484 52.9766C40.1745 52.7682 40.1875 52.5859 40.1875 52.4297C40.1875 52.1432 40.1484 51.8047 40.0703 51.4141C39.9922 50.9974 39.875 50.6589 39.7188 50.3984C39.6927 50.3724 39.6016 50.3464 39.4453 50.3203C39.3151 50.2943 39.1589 50.2812 38.9766 50.2812C38.7943 50.2552 38.625 50.2422 38.4688 50.2422C38.3125 50.2161 38.2214 50.2031 38.1953 50.2031C36.5286 50.0729 34.862 49.9818 33.1953 49.9297C31.5547 49.8776 29.901 49.7865 28.2344 49.6562C27.4792 49.5781 26.6979 49.5 25.8906 49.4219C25.1094 49.3438 24.3802 49.2005 23.7031 48.9922C23.0521 48.8099 22.4922 48.4062 22.0234 47.7812C21.5807 47.1302 21.2161 46.401 20.9297 45.5938C20.6693 44.7604 20.474 43.9271 20.3438 43.0938C20.2396 42.2604 20.1875 41.5573 20.1875 40.9844C20.1875 40.0469 20.2786 39.1615 20.4609 38.3281C20.6432 37.4688 20.9297 36.6745 21.3203 35.9453C21.737 35.2161 22.2578 34.5781 22.8828 34.0312C23.5078 33.4583 24.276 32.9896 25.1875 32.625C26.75 32.026 28.4167 31.6094 30.1875 31.375C31.9844 31.1406 33.7031 31.0234 35.3438 31.0234C37.2708 31.0234 39.1719 31.1406 41.0469 31.375C42.9219 31.6094 44.7969 31.9089 46.6719 32.2734C46.6458 33.0286 46.6198 33.7839 46.5938 34.5391C46.5938 35.2682 46.5938 36.0104 46.5938 36.7656C46.5938 37.5208 46.6328 38.2891 46.7109 39.0703C46.7891 39.8255 46.8672 40.5807 46.9453 41.3359C44.4714 41.388 41.9974 41.4401 39.5234 41.4922C37.0755 41.5182 34.6016 41.5833 32.1016 41.6875C31.7891 41.6875 31.3594 41.7005 30.8125 41.7266C30.2917 41.7526 29.7839 41.7917 29.2891 41.8438C28.7943 41.8698 28.3646 41.8958 28 41.9219C27.6354 41.9479 27.4531 41.9609 27.4531 41.9609C27.3229 42.2474 27.2448 42.5469 27.2188 42.8594C27.1927 43.1458 27.1797 43.4453 27.1797 43.7578C27.1797 43.9141 27.1797 44.1094 27.1797 44.3438C27.2057 44.5781 27.2708 44.7604 27.375 44.8906C27.401 44.9167 27.6224 44.9557 28.0391 45.0078C28.4557 45.0599 28.9115 45.112 29.4062 45.1641C29.9271 45.2161 30.4089 45.2682 30.8516 45.3203C31.3203 45.3724 31.6068 45.3984 31.7109 45.3984C32.5703 45.4766 33.5729 45.5677 34.7188 45.6719C35.8906 45.776 37.0755 45.8932 38.2734 46.0234C39.4974 46.1536 40.6693 46.3229 41.7891 46.5312C42.9089 46.7135 43.8854 46.9349 44.7188 47.1953C45.474 47.4557 46.1641 47.8724 46.7891 48.4453C47.4401 48.9922 48 49.6432 48.4688 50.3984C48.9375 51.1276 49.3021 51.9089 49.5625 52.7422C49.849 53.5495 49.9922 54.3438 49.9922 55.125ZM59.8359 35.8672C59.8359 36.388 59.7188 36.8828 59.4844 37.3516C59.276 37.7943 58.9766 38.1849 58.5859 38.5234C58.2214 38.862 57.8047 39.1354 57.3359 39.3438C56.8672 39.526 56.3984 39.6172 55.9297 39.6172C55.4089 39.6172 54.9141 39.5 54.4453 39.2656C54.0026 39.0312 53.612 38.7318 53.2734 38.3672C52.9349 38.0026 52.6745 37.5859 52.4922 37.1172C52.3099 36.6224 52.2188 36.1276 52.2188 35.6328C52.2188 35.138 52.3099 34.6823 52.4922 34.2656C52.7005 33.8229 52.9609 33.4453 53.2734 33.1328C53.612 32.8203 53.9896 32.5729 54.4062 32.3906C54.849 32.2083 55.3177 32.1172 55.8125 32.1172C56.3073 32.1172 56.7891 32.2214 57.2578 32.4297C57.7526 32.612 58.1823 32.8854 58.5469 33.25C58.9375 33.5885 59.25 33.9922 59.4844 34.4609C59.7188 34.9036 59.8359 35.3724 59.8359 35.8672ZM61.4375 42.5078C61.3073 43.888 61.2031 45.2552 61.125 46.6094C61.0469 47.9635 60.9688 49.3177 60.8906 50.6719C60.7865 52.2604 60.6042 53.8359 60.3438 55.3984C60.1094 56.9609 59.8359 58.5234 59.5234 60.0859L53.5469 60.7109C53.5469 59.8776 53.5469 59.0573 53.5469 58.25C53.5729 57.4427 53.5859 56.6224 53.5859 55.7891C53.5859 53.6536 53.5469 51.5182 53.4688 49.3828C53.3906 47.2474 53.3125 45.112 53.2344 42.9766C54.6146 42.9245 55.9688 42.8464 57.2969 42.7422C58.651 42.638 60.0312 42.5599 61.4375 42.5078ZM91.5156 48.1719C91.5156 49.2656 91.5026 50.3594 91.4766 51.4531C91.4766 52.5208 91.4766 53.6016 91.4766 54.6953C91.4505 55.2682 91.4375 55.8542 91.4375 56.4531C91.4635 57.0521 91.4505 57.651 91.3984 58.25C91.3203 58.8229 91.2422 59.4349 91.1641 60.0859C91.0859 60.7109 90.9557 61.3359 90.7734 61.9609C90.5911 62.5859 90.3438 63.1719 90.0312 63.7188C89.7448 64.2656 89.3542 64.7344 88.8594 65.125C88.7292 65.2292 88.4688 65.3203 88.0781 65.3984C87.6875 65.4766 87.2318 65.5547 86.7109 65.6328C86.1901 65.7109 85.6302 65.776 85.0312 65.8281C84.4323 65.8802 83.8594 65.9193 83.3125 65.9453C82.7656 65.9974 82.2708 66.0365 81.8281 66.0625C81.3854 66.1146 81.0729 66.1406 80.8906 66.1406C79.25 66.1927 77.6224 66.2318 76.0078 66.2578C74.4193 66.2839 72.8047 66.2969 71.1641 66.2969H68.6641C68.612 65.8542 68.5599 65.3984 68.5078 64.9297C68.4557 64.4609 68.4297 63.9922 68.4297 63.5234C68.4297 63.0026 68.3776 62.4688 68.2734 61.9219C68.1693 61.349 68.0521 60.7891 67.9219 60.2422L70.5 60.2812C70.6562 60.2812 71.0859 60.2812 71.7891 60.2812C72.5182 60.2552 73.3646 60.2422 74.3281 60.2422C75.2917 60.2161 76.3203 60.1901 77.4141 60.1641C78.5339 60.112 79.5625 60.0469 80.5 59.9688C81.4375 59.8906 82.2318 59.7995 82.8828 59.6953C83.5599 59.5911 83.9375 59.474 84.0156 59.3438C84.224 59.0052 84.3542 58.6276 84.4062 58.2109C84.4583 57.7682 84.4844 57.3516 84.4844 56.9609C84.4844 56.7526 84.4714 56.5443 84.4453 56.3359C84.4453 56.1016 84.4323 55.8802 84.4062 55.6719C82.9479 55.776 81.5026 55.8672 80.0703 55.9453C78.638 56.0234 77.1797 56.0625 75.6953 56.0625C75.3568 56.0625 74.9271 56.0625 74.4062 56.0625C73.9115 56.0625 73.3906 56.0495 72.8438 56.0234C72.3229 55.9974 71.8021 55.9583 71.2812 55.9062C70.7865 55.8542 70.3828 55.776 70.0703 55.6719C69.5495 55.5156 69.0156 55.3464 68.4688 55.1641C67.9479 54.9557 67.4531 54.7083 66.9844 54.4219C66.5156 54.1354 66.099 53.7969 65.7344 53.4062C65.3958 52.9896 65.1615 52.4948 65.0312 51.9219C64.9531 51.6354 64.901 51.3229 64.875 50.9844C64.875 50.6458 64.875 50.3333 64.875 50.0469C64.875 49.3177 64.9141 48.3932 64.9922 47.2734C65.0703 46.1536 65.2005 45.0208 65.3828 43.875C65.5911 42.7031 65.8516 41.6094 66.1641 40.5938C66.5026 39.5521 66.9193 38.7708 67.4141 38.25C67.7005 37.9375 68.1562 37.6641 68.7812 37.4297C69.4323 37.1953 70.1615 37 70.9688 36.8438C71.776 36.6875 72.6224 36.5573 73.5078 36.4531C74.4193 36.3229 75.3047 36.2318 76.1641 36.1797C77.0234 36.1276 77.8047 36.0885 78.5078 36.0625C79.237 36.0365 79.8099 36.0234 80.2266 36.0234C81.6849 36.0234 83.1432 36.0625 84.6016 36.1406L84.875 33.6406L91.4375 34.6172C91.4635 36.8828 91.4766 39.1354 91.4766 41.375C91.5026 43.6146 91.5156 45.8802 91.5156 48.1719ZM84.6016 47.4297C84.6016 46.5964 84.5885 45.7891 84.5625 45.0078C84.5365 44.2005 84.4974 43.3802 84.4453 42.5469C83.2995 42.2865 82.1536 42.0781 81.0078 41.9219C79.862 41.7656 78.6901 41.6875 77.4922 41.6875C77.2839 41.6875 76.9714 41.7005 76.5547 41.7266C76.138 41.7526 75.6953 41.8047 75.2266 41.8828C74.7839 41.9349 74.3672 42.026 73.9766 42.1562C73.5859 42.2604 73.3125 42.3906 73.1562 42.5469C72.9219 42.8073 72.7786 43.1068 72.7266 43.4453C72.6745 43.7839 72.6484 44.1224 72.6484 44.4609C72.6484 44.7474 72.6745 45.1901 72.7266 45.7891C72.8047 46.362 72.8958 46.9609 73 47.5859C73.1042 48.2109 73.2344 48.7969 73.3906 49.3438C73.5469 49.8906 73.7031 50.2682 73.8594 50.4766C74.0156 50.6849 74.2109 50.8411 74.4453 50.9453C74.6797 51.0495 74.9271 51.1276 75.1875 51.1797C75.474 51.2057 75.7474 51.2318 76.0078 51.2578C76.2943 51.2578 76.5417 51.2578 76.75 51.2578C77.2708 51.2578 77.8958 51.2448 78.625 51.2188C79.3802 51.1667 80.1224 51.0885 80.8516 50.9844C81.6068 50.8802 82.3099 50.737 82.9609 50.5547C83.612 50.3464 84.1068 50.0729 84.4453 49.7344C84.4974 49.7083 84.5365 49.5781 84.5625 49.3438C84.5885 49.1094 84.6016 48.862 84.6016 48.6016C84.6016 48.3411 84.6016 48.0938 84.6016 47.8594C84.6016 47.625 84.6016 47.4818 84.6016 47.4297ZM118.703 50.3984C118.703 51.1016 118.703 51.8177 118.703 52.5469C118.703 53.25 118.677 53.9531 118.625 54.6562L109.914 55.2031C110.018 53.849 110.096 52.5078 110.148 51.1797C110.227 49.8516 110.266 48.4974 110.266 47.1172C110.266 46.987 110.266 46.7656 110.266 46.4531C110.266 46.1406 110.253 45.8151 110.227 45.4766C110.201 45.112 110.174 44.7734 110.148 44.4609C110.122 44.1484 110.096 43.9271 110.07 43.7969C109.94 43.4323 109.797 43.1198 109.641 42.8594C109.51 42.599 109.341 42.3906 109.133 42.2344C108.951 42.0781 108.716 41.974 108.43 41.9219C108.143 41.8438 107.792 41.8047 107.375 41.8047C107.062 41.8047 106.659 41.8307 106.164 41.8828C105.695 41.9349 105.214 42.013 104.719 42.1172C104.224 42.2214 103.755 42.3516 103.312 42.5078C102.87 42.6641 102.557 42.8464 102.375 43.0547L102.297 54.5781C102.245 54.474 102.089 54.4219 101.828 54.4219C101.594 54.4219 101.424 54.4219 101.32 54.4219C100.539 54.4219 99.7318 54.4609 98.8984 54.5391C98.0651 54.5911 97.2578 54.6693 96.4766 54.7734C96.138 51.7005 95.8385 48.6406 95.5781 45.5938C95.3177 42.5469 95.0182 39.487 94.6797 36.4141C95.2005 36.388 95.7214 36.375 96.2422 36.375C96.763 36.349 97.2839 36.3359 97.8047 36.3359C98.4818 36.3359 99.1589 36.362 99.8359 36.4141C100.539 36.4401 101.229 36.4661 101.906 36.4922L102.18 39.5C102.909 38.3021 103.898 37.2995 105.148 36.4922C106.398 35.6849 107.74 35.2812 109.172 35.2812C109.901 35.2812 110.656 35.3203 111.438 35.3984C112.219 35.4766 112.961 35.6328 113.664 35.8672C114.393 36.1016 115.07 36.4271 115.695 36.8438C116.346 37.2604 116.893 37.7943 117.336 38.4453C117.544 38.7578 117.714 39.2266 117.844 39.8516C118 40.4505 118.13 41.1406 118.234 41.9219C118.339 42.6771 118.417 43.4844 118.469 44.3438C118.547 45.2031 118.599 46.0234 118.625 46.8047C118.651 47.5859 118.664 48.3021 118.664 48.9531C118.69 49.5781 118.703 50.0599 118.703 50.3984ZM168.938 49.1094C168.938 50.5938 168.898 52.0651 168.82 53.5234C168.768 54.9818 168.638 56.4531 168.43 57.9375C168.013 58.25 167.596 58.5495 167.18 58.8359C166.763 59.0964 166.333 59.3828 165.891 59.6953C165.526 59.9297 165.122 60.2031 164.68 60.5156C164.263 60.8021 163.82 61.0885 163.352 61.375C162.883 61.6615 162.401 61.9089 161.906 62.1172C161.438 62.3516 160.995 62.5078 160.578 62.5859C160.188 62.6901 159.667 62.7292 159.016 62.7031C158.365 62.7031 157.818 62.7031 157.375 62.7031C156.281 62.7552 155.188 62.7943 154.094 62.8203C153 62.8464 151.88 62.8594 150.734 62.8594C150.214 62.8594 149.615 62.8594 148.938 62.8594C148.26 62.8854 147.648 62.8333 147.102 62.7031C146.945 62.6771 146.685 62.5469 146.32 62.3125C145.956 62.1042 145.539 61.8438 145.07 61.5312C144.628 61.1927 144.159 60.8411 143.664 60.4766C143.169 60.0859 142.688 59.7214 142.219 59.3828C141.776 59.0182 141.385 58.7057 141.047 58.4453C140.734 58.1589 140.513 57.9635 140.383 57.8594C140.253 56.4792 140.148 55.112 140.07 53.7578C140.018 52.3776 139.992 50.9974 139.992 49.6172C139.992 46.9349 140.083 44.2786 140.266 41.6484C140.474 39.0182 140.695 36.375 140.93 33.7188L148.977 33.5234C148.716 35.1901 148.534 36.9609 148.43 38.8359C148.326 40.6849 148.273 42.4688 148.273 44.1875C148.273 44.474 148.286 44.9818 148.312 45.7109C148.339 46.4141 148.391 47.1693 148.469 47.9766C148.547 48.7839 148.638 49.526 148.742 50.2031C148.872 50.8802 149.029 51.3229 149.211 51.5312C149.289 51.6094 149.484 51.6875 149.797 51.7656C150.135 51.8177 150.526 51.8698 150.969 51.9219C151.438 51.974 151.932 52.013 152.453 52.0391C152.974 52.0651 153.469 52.0911 153.938 52.1172C154.406 52.1172 154.823 52.1302 155.188 52.1562C155.552 52.1562 155.812 52.1562 155.969 52.1562C156.099 52.1562 156.32 52.1562 156.633 52.1562C156.945 52.1562 157.258 52.1562 157.57 52.1562C157.909 52.1302 158.221 52.1042 158.508 52.0781C158.794 52.0521 158.99 52 159.094 51.9219C159.406 51.7135 159.641 51.2057 159.797 50.3984C159.953 49.5911 160.07 48.7057 160.148 47.7422C160.227 46.7786 160.266 45.8542 160.266 44.9688C160.266 44.0833 160.266 43.4453 160.266 43.0547C160.266 42.4557 160.266 41.8568 160.266 41.2578C160.292 40.6589 160.305 40.0599 160.305 39.4609C160.305 38.237 160.292 37.0391 160.266 35.8672C160.24 34.6693 160.201 33.4583 160.148 32.2344C160.695 32.2865 161.229 32.3255 161.75 32.3516C162.297 32.3516 162.844 32.3516 163.391 32.3516C164.042 32.3516 164.68 32.3385 165.305 32.3125C165.956 32.2865 166.594 32.2083 167.219 32.0781C167.766 34.8646 168.182 37.6901 168.469 40.5547C168.781 43.3932 168.938 46.2448 168.938 49.1094ZM201.398 48.6797C201.398 49.0443 201.385 49.4479 201.359 49.8906C201.359 50.3073 201.32 50.737 201.242 51.1797C201.19 51.6224 201.099 52.0521 200.969 52.4688C200.865 52.8594 200.708 53.2109 200.5 53.5234C200.057 54.1745 199.641 54.7344 199.25 55.2031C198.859 55.6458 198.43 56.0234 197.961 56.3359C197.518 56.6224 197.01 56.8568 196.438 57.0391C195.865 57.2214 195.188 57.3646 194.406 57.4688C193.234 57.651 192.076 57.8203 190.93 57.9766C189.784 58.1068 188.625 58.1719 187.453 58.1719C186.932 58.1719 186.398 58.1458 185.852 58.0938C185.305 58.0417 184.797 57.8724 184.328 57.5859C184.068 57.4557 183.781 57.2865 183.469 57.0781C183.182 56.8438 182.896 56.6094 182.609 56.375C182.323 56.1146 182.036 55.8672 181.75 55.6328C181.49 55.3724 181.255 55.151 181.047 54.9688L180.812 64.7734C180.083 64.8255 179.354 64.8385 178.625 64.8125C177.896 64.8125 177.154 64.8125 176.398 64.8125C175.956 64.8125 175.526 64.8125 175.109 64.8125C174.719 64.8385 174.302 64.8646 173.859 64.8906C173.964 62.651 174.055 60.4245 174.133 58.2109C174.237 55.9714 174.289 53.7448 174.289 51.5312V51.0625C174.289 48.5885 174.224 46.1276 174.094 43.6797C173.964 41.2318 173.846 38.7708 173.742 36.2969C175.044 36.1927 176.333 36.1016 177.609 36.0234C178.885 35.9453 180.174 35.8542 181.477 35.75L181.75 37.8203C183.547 37.612 185.344 37.4427 187.141 37.3125C188.964 37.1562 190.786 37.0781 192.609 37.0781C192.844 37.0781 193.091 37.0781 193.352 37.0781C193.638 37.0521 193.898 37.0651 194.133 37.1172C194.758 37.2474 195.396 37.4167 196.047 37.625C196.698 37.8073 197.31 38.0547 197.883 38.3672C198.456 38.6797 198.964 39.0833 199.406 39.5781C199.849 40.0469 200.188 40.6198 200.422 41.2969C200.578 41.8177 200.721 42.3906 200.852 43.0156C200.982 43.6406 201.086 44.2917 201.164 44.9688C201.242 45.6198 201.294 46.2708 201.32 46.9219C201.372 47.5469 201.398 48.1328 201.398 48.6797ZM193.703 47.9766C193.703 47.6641 193.677 47.3255 193.625 46.9609C193.573 46.5964 193.443 46.2969 193.234 46.0625C192.714 45.4635 192.062 45.0078 191.281 44.6953C190.5 44.3568 189.732 44.1875 188.977 44.1875C188.352 44.1875 187.674 44.2526 186.945 44.3828C186.216 44.487 185.487 44.6432 184.758 44.8516C184.029 45.0339 183.312 45.2552 182.609 45.5156C181.906 45.75 181.268 45.9844 180.695 46.2188L181.047 51.4531C182.01 51.7396 183.039 52 184.133 52.2344C185.253 52.4688 186.307 52.5859 187.297 52.5859C187.557 52.5859 187.961 52.599 188.508 52.625C189.055 52.625 189.615 52.612 190.188 52.5859C190.786 52.5339 191.333 52.4688 191.828 52.3906C192.349 52.3125 192.688 52.1693 192.844 51.9609C192.974 51.8047 193.091 51.5573 193.195 51.2188C193.299 50.8542 193.391 50.4766 193.469 50.0859C193.547 49.6693 193.599 49.2786 193.625 48.9141C193.677 48.5234 193.703 48.2109 193.703 47.9766Z" fill="#EFEFEF"/>
</g>
<defs>
<clipPath id="clip0_292_69">
<rect width="224" height="95" fill="white"/>
</clipPath>
</defs>
</svg>
